<svg xmlns="http://www.w3.org/2000/svg" xmlns:xlink="http://www.w3.org/1999/xlink" width="60" zoomAndPan="magnify" viewBox="0 0 45 30.000001" height="40" preserveAspectRatio="xMidYMid meet" version="1.0"><defs><g/><clipPath id="85845ae7eb"><path d="M 12 9.777344 L 14 9.777344 L 14 10 L 12 10 Z M 12 9.777344 " clip-rule="nonzero"/></clipPath><clipPath id="079eb75d8f"><path d="M 12 12 L 14.664062 12 L 14.664062 13 L 12 13 Z M 12 12 " clip-rule="nonzero"/></clipPath><clipPath id="f512a81c68"><path d="M 12 12 L 14.664062 12 L 14.664062 14 L 12 14 Z M 12 12 " clip-rule="nonzero"/></clipPath><clipPath id="6aa60cbe03"><path d="M 11.761719 13 L 14.664062 13 L 14.664062 14 L 11.761719 14 Z M 11.761719 13 " clip-rule="nonzero"/></clipPath><clipPath id="24153cf69e"><path d="M 11.890625 13.636719 L 14.539062 13.636719 L 14.539062 13.804688 L 11.890625 13.804688 Z M 11.890625 13.636719 " clip-rule="nonzero"/></clipPath><clipPath id="9d4edc9d61"><path d="M 11.890625 13.957031 L 14.539062 13.957031 L 14.539062 14.125 L 11.890625 14.125 Z M 11.890625 13.957031 " clip-rule="nonzero"/></clipPath><clipPath id="235b7f7f49"><path d="M 11.890625 14.277344 L 14.539062 14.277344 L 14.539062 14.445312 L 11.890625 14.445312 Z M 11.890625 14.277344 " clip-rule="nonzero"/></clipPath><clipPath id="2e0d57875e"><path d="M 11.890625 14.597656 L 14.539062 14.597656 L 14.539062 14.765625 L 11.890625 14.765625 Z M 11.890625 14.597656 " clip-rule="nonzero"/></clipPath><clipPath id="a849ff5b9f"><path d="M 11.890625 14.917969 L 14.539062 14.917969 L 14.539062 15.085938 L 11.890625 15.085938 Z M 11.890625 14.917969 " clip-rule="nonzero"/></clipPath><clipPath id="04a54db6af"><path d="M 11.890625 15.238281 L 14.539062 15.238281 L 14.539062 15.40625 L 11.890625 15.40625 Z M 11.890625 15.238281 " clip-rule="nonzero"/></clipPath><clipPath id="3236ceae6c"><path d="M 11.890625 15.5625 L 14.539062 15.5625 L 14.539062 15.726562 L 11.890625 15.726562 Z M 11.890625 15.5625 " clip-rule="nonzero"/></clipPath><clipPath id="c70926d1d5"><path d="M 11.890625 15.882812 L 14.539062 15.882812 L 14.539062 16.046875 L 11.890625 16.046875 Z M 11.890625 15.882812 " clip-rule="nonzero"/></clipPath><clipPath id="f665b5ba10"><path d="M 11.890625 16.203125 L 14.539062 16.203125 L 14.539062 16.367188 L 11.890625 16.367188 Z M 11.890625 16.203125 " clip-rule="nonzero"/></clipPath><clipPath id="ce2d380fe7"><path d="M 13.445312 16.523438 L 14.539062 16.523438 L 14.539062 16.6875 L 13.445312 16.6875 Z M 13.445312 16.523438 " clip-rule="nonzero"/></clipPath><clipPath id="3ce6c57719"><path d="M 13.542969 16.84375 L 14.539062 16.84375 L 14.539062 17.007812 L 13.542969 17.007812 Z M 13.542969 16.84375 " clip-rule="nonzero"/></clipPath><clipPath id="778e2b5f5c"><path d="M 13.589844 17.164062 L 14.539062 17.164062 L 14.539062 17.328125 L 13.589844 17.328125 Z M 13.589844 17.164062 " clip-rule="nonzero"/></clipPath><clipPath id="2adb88e66a"><path d="M 13.542969 17.484375 L 14.539062 17.484375 L 14.539062 17.648438 L 13.542969 17.648438 Z M 13.542969 17.484375 " clip-rule="nonzero"/></clipPath><clipPath id="35732cc800"><path d="M 13.351562 17.804688 L 14.539062 17.804688 L 14.539062 17.96875 L 13.351562 17.96875 Z M 13.351562 17.804688 " clip-rule="nonzero"/></clipPath><clipPath id="ec65d92814"><path d="M 12.6875 18.125 L 14.539062 18.125 L 14.539062 18.289062 L 12.6875 18.289062 Z M 12.6875 18.125 " clip-rule="nonzero"/></clipPath><clipPath id="f5ca9504a0"><path d="M 12.605469 18.445312 L 14.539062 18.445312 L 14.539062 18.609375 L 12.605469 18.609375 Z M 12.605469 18.445312 " clip-rule="nonzero"/></clipPath><clipPath id="b59776d82d"><path d="M 11.761719 18 L 13 18 L 13 19 L 11.761719 19 Z M 11.761719 18 " clip-rule="nonzero"/></clipPath><clipPath id="bf72073d63"><path d="M 12.582031 18.765625 L 14.539062 18.765625 L 14.539062 18.929688 L 12.582031 18.929688 Z M 12.582031 18.765625 " clip-rule="nonzero"/></clipPath><clipPath id="40484fa117"><path d="M 11.761719 18 L 13 18 L 13 19 L 11.761719 19 Z M 11.761719 18 " clip-rule="nonzero"/></clipPath><clipPath id="7aa1acbebe"><path d="M 11.761719 19 L 13 19 L 13 20 L 11.761719 20 Z M 11.761719 19 " clip-rule="nonzero"/></clipPath><clipPath id="05157d3d24"><path d="M 12.570312 19.085938 L 14.539062 19.085938 L 14.539062 19.25 L 12.570312 19.25 Z M 12.570312 19.085938 " clip-rule="nonzero"/></clipPath><clipPath id="a57c63f1e1"><path d="M 12.570312 19.40625 L 14.539062 19.40625 L 14.539062 19.574219 L 12.570312 19.574219 Z M 12.570312 19.40625 " clip-rule="nonzero"/></clipPath><clipPath id="09a02c7bf2"><path d="M 11.761719 19 L 13 19 L 13 20 L 11.761719 20 Z M 11.761719 19 " clip-rule="nonzero"/></clipPath><clipPath id="697c2943ad"><path d="M 12.582031 19.726562 L 14.539062 19.726562 L 14.539062 19.894531 L 12.582031 19.894531 Z M 12.582031 19.726562 " clip-rule="nonzero"/></clipPath><clipPath id="d6d20874be"><path d="M 11.761719 19 L 13 19 L 13 20 L 11.761719 20 Z M 11.761719 19 " clip-rule="nonzero"/></clipPath><clipPath id="68d90fd2da"><path d="M 12.59375 20.046875 L 14.539062 20.046875 L 14.539062 20.214844 L 12.59375 20.214844 Z M 12.59375 20.046875 " clip-rule="nonzero"/></clipPath><clipPath id="e487706a3d"><path d="M 11.761719 20 L 13 20 L 13 20.667969 L 11.761719 20.667969 Z M 11.761719 20 " clip-rule="nonzero"/></clipPath><clipPath id="a56bf8cd0d"><path d="M 11.761719 20.355469 L 14.539062 20.355469 L 14.539062 20.527344 L 11.761719 20.527344 Z M 11.761719 20.355469 " clip-rule="nonzero"/></clipPath></defs><g fill="#1d150e" fill-opacity="1"><g transform="translate(17.551584, 20.303825)"><g><path d="M 0.078125 -1.09375 L 0.328125 -1.09375 C 0.441406 -1.09375 0.519531 -1.0625 0.5625 -1 C 0.613281 -0.945312 0.640625 -0.863281 0.640625 -0.75 L 0.640625 -0.359375 C 0.640625 -0.234375 0.613281 -0.140625 0.5625 -0.078125 C 0.519531 -0.0234375 0.441406 0 0.328125 0 L 0.078125 0 Z M 0.328125 -0.109375 C 0.378906 -0.109375 0.414062 -0.117188 0.4375 -0.140625 C 0.457031 -0.160156 0.46875 -0.1875 0.46875 -0.21875 C 0.476562 -0.257812 0.484375 -0.316406 0.484375 -0.390625 L 0.484375 -0.734375 C 0.484375 -0.796875 0.476562 -0.84375 0.46875 -0.875 C 0.46875 -0.90625 0.453125 -0.925781 0.421875 -0.9375 C 0.398438 -0.957031 0.363281 -0.96875 0.3125 -0.96875 L 0.234375 -0.96875 L 0.234375 -0.109375 Z M 0.328125 -0.109375 "/></g></g></g><g fill="#1d150e" fill-opacity="1"><g transform="translate(18.256683, 20.303825)"><g><path d="M 0.078125 -1.046875 L 0.21875 -1.046875 L 0.21875 -0.890625 L 0.078125 -0.890625 Z M 0.078125 -0.78125 L 0.21875 -0.78125 L 0.21875 0 L 0.078125 0 Z M 0.078125 -0.78125 "/></g></g></g><g fill="#1d150e" fill-opacity="1"><g transform="translate(18.563073, 20.303825)"><g><path d="M 0.25 0.015625 C 0.1875 0.015625 0.132812 -0.00390625 0.09375 -0.046875 C 0.0625 -0.0859375 0.0390625 -0.140625 0.03125 -0.203125 L 0.15625 -0.25 C 0.15625 -0.195312 0.164062 -0.15625 0.1875 -0.125 C 0.207031 -0.101562 0.234375 -0.09375 0.265625 -0.09375 C 0.285156 -0.09375 0.300781 -0.0976562 0.3125 -0.109375 C 0.332031 -0.128906 0.34375 -0.148438 0.34375 -0.171875 C 0.34375 -0.203125 0.335938 -0.222656 0.328125 -0.234375 C 0.316406 -0.253906 0.300781 -0.273438 0.28125 -0.296875 L 0.140625 -0.40625 C 0.117188 -0.4375 0.0976562 -0.460938 0.078125 -0.484375 C 0.0546875 -0.515625 0.046875 -0.550781 0.046875 -0.59375 C 0.046875 -0.65625 0.0625 -0.703125 0.09375 -0.734375 C 0.132812 -0.765625 0.1875 -0.78125 0.25 -0.78125 C 0.3125 -0.78125 0.359375 -0.757812 0.390625 -0.71875 C 0.421875 -0.6875 0.441406 -0.640625 0.453125 -0.578125 L 0.359375 -0.546875 C 0.347656 -0.585938 0.332031 -0.617188 0.3125 -0.640625 C 0.300781 -0.671875 0.285156 -0.6875 0.265625 -0.6875 C 0.234375 -0.6875 0.210938 -0.675781 0.203125 -0.65625 C 0.191406 -0.644531 0.1875 -0.628906 0.1875 -0.609375 C 0.1875 -0.578125 0.195312 -0.550781 0.21875 -0.53125 L 0.359375 -0.390625 C 0.390625 -0.359375 0.414062 -0.328125 0.4375 -0.296875 C 0.457031 -0.265625 0.46875 -0.226562 0.46875 -0.1875 C 0.46875 -0.125 0.445312 -0.0703125 0.40625 -0.03125 C 0.375 0 0.320312 0.015625 0.25 0.015625 Z M 0.25 0.015625 "/></g></g></g><g fill="#1d150e" fill-opacity="1"><g transform="translate(19.063466, 20.303825)"><g><path d="M 0.125 -0.671875 L 0.03125 -0.671875 L 0.03125 -0.78125 L 0.125 -0.78125 L 0.125 -0.8125 C 0.125 -0.863281 0.125 -0.90625 0.125 -0.9375 C 0.132812 -0.976562 0.148438 -1.003906 0.171875 -1.015625 C 0.203125 -1.035156 0.238281 -1.046875 0.28125 -1.046875 C 0.3125 -1.046875 0.34375 -1.046875 0.375 -1.046875 L 0.375 -0.9375 C 0.363281 -0.9375 0.347656 -0.9375 0.328125 -0.9375 C 0.296875 -0.9375 0.273438 -0.925781 0.265625 -0.90625 C 0.265625 -0.894531 0.265625 -0.875 0.265625 -0.84375 L 0.265625 -0.78125 L 0.375 -0.78125 L 0.375 -0.671875 L 0.265625 -0.671875 L 0.265625 0 L 0.125 0 Z M 0.125 -0.671875 "/></g></g></g><g fill="#1d150e" fill-opacity="1"><g transform="translate(19.447457, 20.303825)"><g><path d="M 0.078125 -0.78125 L 0.21875 -0.78125 L 0.21875 -0.671875 C 0.25 -0.710938 0.273438 -0.738281 0.296875 -0.75 C 0.328125 -0.769531 0.359375 -0.78125 0.390625 -0.78125 C 0.398438 -0.78125 0.410156 -0.78125 0.421875 -0.78125 L 0.421875 -0.625 C 0.390625 -0.632812 0.359375 -0.640625 0.328125 -0.640625 C 0.304688 -0.640625 0.285156 -0.632812 0.265625 -0.625 C 0.253906 -0.613281 0.238281 -0.59375 0.21875 -0.5625 L 0.21875 0 L 0.078125 0 Z M 0.078125 -0.78125 "/></g></g></g><g fill="#1d150e" fill-opacity="1"><g transform="translate(19.876938, 20.303825)"><g><path d="M 0.1875 0.015625 C 0.144531 0.015625 0.113281 0 0.09375 -0.03125 C 0.0703125 -0.0625 0.0625 -0.0976562 0.0625 -0.140625 L 0.0625 -0.78125 L 0.21875 -0.78125 L 0.21875 -0.1875 C 0.21875 -0.15625 0.21875 -0.132812 0.21875 -0.125 C 0.226562 -0.113281 0.242188 -0.109375 0.265625 -0.109375 C 0.296875 -0.109375 0.332031 -0.125 0.375 -0.15625 L 0.375 -0.78125 L 0.515625 -0.78125 L 0.515625 0 L 0.375 0 L 0.375 -0.078125 C 0.3125 -0.015625 0.25 0.015625 0.1875 0.015625 Z M 0.1875 0.015625 "/></g></g></g><g fill="#1d150e" fill-opacity="1"><g transform="translate(20.465635, 20.303825)"><g><path d="M 0.28125 0.015625 C 0.164062 0.015625 0.109375 -0.046875 0.109375 -0.171875 L 0.109375 -0.6875 L 0.03125 -0.6875 L 0.03125 -0.78125 L 0.109375 -0.78125 L 0.109375 -1 L 0.25 -1 L 0.25 -0.78125 L 0.375 -0.78125 L 0.375 -0.6875 L 0.25 -0.6875 L 0.25 -0.1875 C 0.25 -0.15625 0.253906 -0.128906 0.265625 -0.109375 C 0.273438 -0.0976562 0.296875 -0.09375 0.328125 -0.09375 C 0.347656 -0.09375 0.363281 -0.0976562 0.375 -0.109375 L 0.375 0 C 0.34375 0.0078125 0.3125 0.015625 0.28125 0.015625 Z M 0.28125 0.015625 "/></g></g></g><g fill="#1d150e" fill-opacity="1"><g transform="translate(20.877723, 20.303825)"><g><path d="M 0.21875 0.015625 C 0.1875 0.015625 0.15625 0.00390625 0.125 -0.015625 C 0.101562 -0.0351562 0.0859375 -0.0546875 0.078125 -0.078125 C 0.0664062 -0.109375 0.0625 -0.140625 0.0625 -0.171875 C 0.0625 -0.234375 0.0703125 -0.28125 0.09375 -0.3125 C 0.125 -0.351562 0.15625 -0.382812 0.1875 -0.40625 C 0.226562 -0.425781 0.285156 -0.453125 0.359375 -0.484375 L 0.359375 -0.546875 C 0.359375 -0.585938 0.351562 -0.617188 0.34375 -0.640625 C 0.332031 -0.671875 0.3125 -0.6875 0.28125 -0.6875 C 0.226562 -0.6875 0.203125 -0.644531 0.203125 -0.5625 L 0.203125 -0.53125 L 0.0625 -0.53125 C 0.0625 -0.625 0.078125 -0.6875 0.109375 -0.71875 C 0.148438 -0.757812 0.210938 -0.78125 0.296875 -0.78125 C 0.367188 -0.78125 0.421875 -0.757812 0.453125 -0.71875 C 0.484375 -0.6875 0.5 -0.628906 0.5 -0.546875 L 0.5 -0.1875 C 0.5 -0.125 0.503906 -0.0625 0.515625 0 L 0.390625 0 C 0.378906 -0.0507812 0.375 -0.0859375 0.375 -0.109375 C 0.363281 -0.078125 0.34375 -0.046875 0.3125 -0.015625 C 0.289062 0.00390625 0.257812 0.015625 0.21875 0.015625 Z M 0.265625 -0.109375 C 0.285156 -0.109375 0.300781 -0.113281 0.3125 -0.125 C 0.332031 -0.144531 0.347656 -0.160156 0.359375 -0.171875 L 0.359375 -0.390625 C 0.328125 -0.367188 0.296875 -0.347656 0.265625 -0.328125 C 0.242188 -0.316406 0.226562 -0.300781 0.21875 -0.28125 C 0.207031 -0.257812 0.203125 -0.238281 0.203125 -0.21875 C 0.203125 -0.1875 0.207031 -0.160156 0.21875 -0.140625 C 0.226562 -0.117188 0.242188 -0.109375 0.265625 -0.109375 Z M 0.265625 -0.109375 "/></g></g></g><g fill="#1d150e" fill-opacity="1"><g transform="translate(21.447689, 20.303825)"><g/></g></g><g fill="#1d150e" fill-opacity="1"><g transform="translate(21.75408, 20.303825)"><g><path d="M 0.28125 0.015625 C 0.226562 0.015625 0.179688 0.00390625 0.140625 -0.015625 C 0.109375 -0.046875 0.0859375 -0.0820312 0.078125 -0.125 C 0.0664062 -0.164062 0.0625 -0.222656 0.0625 -0.296875 L 0.0625 -0.484375 C 0.0625 -0.585938 0.078125 -0.660156 0.109375 -0.703125 C 0.140625 -0.753906 0.195312 -0.78125 0.28125 -0.78125 C 0.34375 -0.78125 0.390625 -0.765625 0.421875 -0.734375 C 0.460938 -0.710938 0.488281 -0.675781 0.5 -0.625 C 0.507812 -0.582031 0.515625 -0.523438 0.515625 -0.453125 L 0.515625 -0.390625 L 0.203125 -0.390625 L 0.203125 -0.234375 C 0.203125 -0.179688 0.207031 -0.144531 0.21875 -0.125 C 0.238281 -0.101562 0.257812 -0.09375 0.28125 -0.09375 C 0.3125 -0.09375 0.332031 -0.101562 0.34375 -0.125 C 0.351562 -0.144531 0.359375 -0.175781 0.359375 -0.21875 L 0.359375 -0.265625 L 0.5 -0.265625 L 0.5 -0.234375 C 0.5 -0.160156 0.484375 -0.0976562 0.453125 -0.046875 C 0.421875 -0.00390625 0.363281 0.015625 0.28125 0.015625 Z M 0.359375 -0.46875 L 0.359375 -0.53125 C 0.359375 -0.582031 0.351562 -0.617188 0.34375 -0.640625 C 0.332031 -0.671875 0.3125 -0.6875 0.28125 -0.6875 C 0.257812 -0.6875 0.242188 -0.679688 0.234375 -0.671875 C 0.222656 -0.660156 0.210938 -0.640625 0.203125 -0.609375 C 0.203125 -0.585938 0.203125 -0.550781 0.203125 -0.5 L 0.203125 -0.46875 Z M 0.359375 -0.46875 "/></g></g></g><g fill="#1d150e" fill-opacity="1"><g transform="translate(22.317356, 20.303825)"><g><path d="M 0.09375 -1.09375 L 0.234375 -1.09375 L 0.234375 0 L 0.09375 0 Z M 0.09375 -1.09375 "/></g></g></g><g fill="#1d150e" fill-opacity="1"><g transform="translate(22.623747, 20.303825)"><g/></g></g><g fill="#1d150e" fill-opacity="1"><g transform="translate(22.930137, 20.303825)"><g><path d="M 0.015625 -0.78125 L 0.171875 -0.78125 L 0.265625 -0.15625 L 0.359375 -0.78125 L 0.5 -0.78125 L 0.34375 0 L 0.171875 0 Z M 0.015625 -0.78125 "/></g></g></g><g fill="#1d150e" fill-opacity="1"><g transform="translate(23.445247, 20.303825)"><g><path d="M 0.078125 -1.046875 L 0.21875 -1.046875 L 0.21875 -0.890625 L 0.078125 -0.890625 Z M 0.078125 -0.78125 L 0.21875 -0.78125 L 0.21875 0 L 0.078125 0 Z M 0.078125 -0.78125 "/></g></g></g><g fill="#1d150e" fill-opacity="1"><g transform="translate(23.751638, 20.303825)"><g><path d="M 0.21875 0.015625 C 0.1875 0.015625 0.15625 0.00390625 0.125 -0.015625 C 0.101562 -0.0351562 0.0859375 -0.0546875 0.078125 -0.078125 C 0.0664062 -0.109375 0.0625 -0.140625 0.0625 -0.171875 C 0.0625 -0.234375 0.0703125 -0.28125 0.09375 -0.3125 C 0.125 -0.351562 0.15625 -0.382812 0.1875 -0.40625 C 0.226562 -0.425781 0.285156 -0.453125 0.359375 -0.484375 L 0.359375 -0.546875 C 0.359375 -0.585938 0.351562 -0.617188 0.34375 -0.640625 C 0.332031 -0.671875 0.3125 -0.6875 0.28125 -0.6875 C 0.226562 -0.6875 0.203125 -0.644531 0.203125 -0.5625 L 0.203125 -0.53125 L 0.0625 -0.53125 C 0.0625 -0.625 0.078125 -0.6875 0.109375 -0.71875 C 0.148438 -0.757812 0.210938 -0.78125 0.296875 -0.78125 C 0.367188 -0.78125 0.421875 -0.757812 0.453125 -0.71875 C 0.484375 -0.6875 0.5 -0.628906 0.5 -0.546875 L 0.5 -0.1875 C 0.5 -0.125 0.503906 -0.0625 0.515625 0 L 0.390625 0 C 0.378906 -0.0507812 0.375 -0.0859375 0.375 -0.109375 C 0.363281 -0.078125 0.34375 -0.046875 0.3125 -0.015625 C 0.289062 0.00390625 0.257812 0.015625 0.21875 0.015625 Z M 0.265625 -0.109375 C 0.285156 -0.109375 0.300781 -0.113281 0.3125 -0.125 C 0.332031 -0.144531 0.347656 -0.160156 0.359375 -0.171875 L 0.359375 -0.390625 C 0.328125 -0.367188 0.296875 -0.347656 0.265625 -0.328125 C 0.242188 -0.316406 0.226562 -0.300781 0.21875 -0.28125 C 0.207031 -0.257812 0.203125 -0.238281 0.203125 -0.21875 C 0.203125 -0.1875 0.207031 -0.160156 0.21875 -0.140625 C 0.226562 -0.117188 0.242188 -0.109375 0.265625 -0.109375 Z M 0.265625 -0.109375 "/></g></g></g><g fill="#1d150e" fill-opacity="1"><g transform="translate(24.321604, 20.303825)"><g><path d="M 0.09375 -1.046875 L 0.234375 -1.046875 L 0.234375 -0.890625 L 0.09375 -0.890625 Z M 0.046875 0.203125 C 0.015625 0.203125 -0.0078125 0.195312 -0.03125 0.1875 L -0.03125 0.078125 C -0.0078125 0.0859375 0.00390625 0.09375 0.015625 0.09375 C 0.046875 0.09375 0.0664062 0.0820312 0.078125 0.0625 C 0.0859375 0.0390625 0.09375 0.0195312 0.09375 0 L 0.09375 -0.78125 L 0.234375 -0.78125 L 0.234375 0.015625 C 0.234375 0.0664062 0.21875 0.109375 0.1875 0.140625 C 0.15625 0.179688 0.109375 0.203125 0.046875 0.203125 Z M 0.046875 0.203125 "/></g></g></g><g fill="#1d150e" fill-opacity="1"><g transform="translate(24.629332, 20.303825)"><g><path d="M 0.28125 0.015625 C 0.226562 0.015625 0.179688 0.00390625 0.140625 -0.015625 C 0.109375 -0.046875 0.0859375 -0.0820312 0.078125 -0.125 C 0.0664062 -0.164062 0.0625 -0.222656 0.0625 -0.296875 L 0.0625 -0.484375 C 0.0625 -0.585938 0.078125 -0.660156 0.109375 -0.703125 C 0.140625 -0.753906 0.195312 -0.78125 0.28125 -0.78125 C 0.34375 -0.78125 0.390625 -0.765625 0.421875 -0.734375 C 0.460938 -0.710938 0.488281 -0.675781 0.5 -0.625 C 0.507812 -0.582031 0.515625 -0.523438 0.515625 -0.453125 L 0.515625 -0.390625 L 0.203125 -0.390625 L 0.203125 -0.234375 C 0.203125 -0.179688 0.207031 -0.144531 0.21875 -0.125 C 0.238281 -0.101562 0.257812 -0.09375 0.28125 -0.09375 C 0.3125 -0.09375 0.332031 -0.101562 0.34375 -0.125 C 0.351562 -0.144531 0.359375 -0.175781 0.359375 -0.21875 L 0.359375 -0.265625 L 0.5 -0.265625 L 0.5 -0.234375 C 0.5 -0.160156 0.484375 -0.0976562 0.453125 -0.046875 C 0.421875 -0.00390625 0.363281 0.015625 0.28125 0.015625 Z M 0.359375 -0.46875 L 0.359375 -0.53125 C 0.359375 -0.582031 0.351562 -0.617188 0.34375 -0.640625 C 0.332031 -0.671875 0.3125 -0.6875 0.28125 -0.6875 C 0.257812 -0.6875 0.242188 -0.679688 0.234375 -0.671875 C 0.222656 -0.660156 0.210938 -0.640625 0.203125 -0.609375 C 0.203125 -0.585938 0.203125 -0.550781 0.203125 -0.5 L 0.203125 -0.46875 Z M 0.359375 -0.46875 "/></g></g></g><g fill="#1d150e" fill-opacity="1"><g transform="translate(25.192609, 20.303825)"><g/></g></g><g fill="#1d150e" fill-opacity="1"><g transform="translate(25.498999, 20.303825)"><g><path d="M 0.25 0.015625 C 0.1875 0.015625 0.132812 -0.00390625 0.09375 -0.046875 C 0.0625 -0.0859375 0.0390625 -0.140625 0.03125 -0.203125 L 0.15625 -0.25 C 0.15625 -0.195312 0.164062 -0.15625 0.1875 -0.125 C 0.207031 -0.101562 0.234375 -0.09375 0.265625 -0.09375 C 0.285156 -0.09375 0.300781 -0.0976562 0.3125 -0.109375 C 0.332031 -0.128906 0.34375 -0.148438 0.34375 -0.171875 C 0.34375 -0.203125 0.335938 -0.222656 0.328125 -0.234375 C 0.316406 -0.253906 0.300781 -0.273438 0.28125 -0.296875 L 0.140625 -0.40625 C 0.117188 -0.4375 0.0976562 -0.460938 0.078125 -0.484375 C 0.0546875 -0.515625 0.046875 -0.550781 0.046875 -0.59375 C 0.046875 -0.65625 0.0625 -0.703125 0.09375 -0.734375 C 0.132812 -0.765625 0.1875 -0.78125 0.25 -0.78125 C 0.3125 -0.78125 0.359375 -0.757812 0.390625 -0.71875 C 0.421875 -0.6875 0.441406 -0.640625 0.453125 -0.578125 L 0.359375 -0.546875 C 0.347656 -0.585938 0.332031 -0.617188 0.3125 -0.640625 C 0.300781 -0.671875 0.285156 -0.6875 0.265625 -0.6875 C 0.234375 -0.6875 0.210938 -0.675781 0.203125 -0.65625 C 0.191406 -0.644531 0.1875 -0.628906 0.1875 -0.609375 C 0.1875 -0.578125 0.195312 -0.550781 0.21875 -0.53125 L 0.359375 -0.390625 C 0.390625 -0.359375 0.414062 -0.328125 0.4375 -0.296875 C 0.457031 -0.265625 0.46875 -0.226562 0.46875 -0.1875 C 0.46875 -0.125 0.445312 -0.0703125 0.40625 -0.03125 C 0.375 0 0.320312 0.015625 0.25 0.015625 Z M 0.25 0.015625 "/></g></g></g><g fill="#1d150e" fill-opacity="1"><g transform="translate(25.999392, 20.303825)"><g><path d="M 0.21875 0.015625 C 0.1875 0.015625 0.15625 0.00390625 0.125 -0.015625 C 0.101562 -0.0351562 0.0859375 -0.0546875 0.078125 -0.078125 C 0.0664062 -0.109375 0.0625 -0.140625 0.0625 -0.171875 C 0.0625 -0.234375 0.0703125 -0.28125 0.09375 -0.3125 C 0.125 -0.351562 0.15625 -0.382812 0.1875 -0.40625 C 0.226562 -0.425781 0.285156 -0.453125 0.359375 -0.484375 L 0.359375 -0.546875 C 0.359375 -0.585938 0.351562 -0.617188 0.34375 -0.640625 C 0.332031 -0.671875 0.3125 -0.6875 0.28125 -0.6875 C 0.226562 -0.6875 0.203125 -0.644531 0.203125 -0.5625 L 0.203125 -0.53125 L 0.0625 -0.53125 C 0.0625 -0.625 0.078125 -0.6875 0.109375 -0.71875 C 0.148438 -0.757812 0.210938 -0.78125 0.296875 -0.78125 C 0.367188 -0.78125 0.421875 -0.757812 0.453125 -0.71875 C 0.484375 -0.6875 0.5 -0.628906 0.5 -0.546875 L 0.5 -0.1875 C 0.5 -0.125 0.503906 -0.0625 0.515625 0 L 0.390625 0 C 0.378906 -0.0507812 0.375 -0.0859375 0.375 -0.109375 C 0.363281 -0.078125 0.34375 -0.046875 0.3125 -0.015625 C 0.289062 0.00390625 0.257812 0.015625 0.21875 0.015625 Z M 0.265625 -0.109375 C 0.285156 -0.109375 0.300781 -0.113281 0.3125 -0.125 C 0.332031 -0.144531 0.347656 -0.160156 0.359375 -0.171875 L 0.359375 -0.390625 C 0.328125 -0.367188 0.296875 -0.347656 0.265625 -0.328125 C 0.242188 -0.316406 0.226562 -0.300781 0.21875 -0.28125 C 0.207031 -0.257812 0.203125 -0.238281 0.203125 -0.21875 C 0.203125 -0.1875 0.207031 -0.160156 0.21875 -0.140625 C 0.226562 -0.117188 0.242188 -0.109375 0.265625 -0.109375 Z M 0.265625 -0.109375 "/></g></g></g><g fill="#1d150e" fill-opacity="1"><g transform="translate(26.569358, 20.303825)"><g><path d="M 0.34375 0.015625 C 0.300781 0.015625 0.257812 -0.0078125 0.21875 -0.0625 L 0.21875 0 L 0.078125 0 L 0.078125 -1.09375 L 0.21875 -1.09375 L 0.21875 -0.71875 C 0.257812 -0.757812 0.304688 -0.78125 0.359375 -0.78125 C 0.429688 -0.78125 0.476562 -0.75 0.5 -0.6875 C 0.53125 -0.632812 0.546875 -0.570312 0.546875 -0.5 L 0.546875 -0.3125 C 0.546875 -0.09375 0.476562 0.015625 0.34375 0.015625 Z M 0.328125 -0.109375 C 0.359375 -0.109375 0.378906 -0.125 0.390625 -0.15625 C 0.398438 -0.1875 0.40625 -0.238281 0.40625 -0.3125 L 0.40625 -0.5 C 0.40625 -0.550781 0.394531 -0.59375 0.375 -0.625 C 0.363281 -0.65625 0.34375 -0.671875 0.3125 -0.671875 C 0.28125 -0.671875 0.25 -0.660156 0.21875 -0.640625 L 0.21875 -0.140625 C 0.25 -0.117188 0.285156 -0.109375 0.328125 -0.109375 Z M 0.328125 -0.109375 "/></g></g></g><g fill="#1d150e" fill-opacity="1"><g transform="translate(27.167421, 20.303825)"><g><path d="M 0.28125 0.015625 C 0.195312 0.015625 0.140625 -0.0078125 0.109375 -0.0625 C 0.078125 -0.113281 0.0625 -0.1875 0.0625 -0.28125 L 0.0625 -0.5 C 0.0625 -0.59375 0.078125 -0.660156 0.109375 -0.703125 C 0.140625 -0.753906 0.195312 -0.78125 0.28125 -0.78125 C 0.363281 -0.78125 0.421875 -0.753906 0.453125 -0.703125 C 0.492188 -0.660156 0.515625 -0.59375 0.515625 -0.5 L 0.515625 -0.28125 C 0.515625 -0.1875 0.492188 -0.113281 0.453125 -0.0625 C 0.421875 -0.0078125 0.363281 0.015625 0.28125 0.015625 Z M 0.28125 -0.09375 C 0.3125 -0.09375 0.332031 -0.0976562 0.34375 -0.109375 C 0.351562 -0.128906 0.359375 -0.148438 0.359375 -0.171875 C 0.367188 -0.191406 0.375 -0.222656 0.375 -0.265625 L 0.375 -0.515625 C 0.375 -0.546875 0.367188 -0.570312 0.359375 -0.59375 C 0.359375 -0.625 0.351562 -0.644531 0.34375 -0.65625 C 0.332031 -0.675781 0.3125 -0.6875 0.28125 -0.6875 C 0.257812 -0.6875 0.242188 -0.675781 0.234375 -0.65625 C 0.222656 -0.644531 0.210938 -0.625 0.203125 -0.59375 C 0.203125 -0.570312 0.203125 -0.546875 0.203125 -0.515625 L 0.203125 -0.265625 C 0.203125 -0.222656 0.203125 -0.191406 0.203125 -0.171875 C 0.210938 -0.148438 0.222656 -0.128906 0.234375 -0.109375 C 0.242188 -0.0976562 0.257812 -0.09375 0.28125 -0.09375 Z M 0.28125 -0.09375 "/></g></g></g><g fill="#1d150e" fill-opacity="1"><g transform="translate(27.736049, 20.303825)"><g><path d="M 0.078125 -0.78125 L 0.21875 -0.78125 L 0.21875 -0.671875 C 0.25 -0.710938 0.273438 -0.738281 0.296875 -0.75 C 0.328125 -0.769531 0.359375 -0.78125 0.390625 -0.78125 C 0.398438 -0.78125 0.410156 -0.78125 0.421875 -0.78125 L 0.421875 -0.625 C 0.390625 -0.632812 0.359375 -0.640625 0.328125 -0.640625 C 0.304688 -0.640625 0.285156 -0.632812 0.265625 -0.625 C 0.253906 -0.613281 0.238281 -0.59375 0.21875 -0.5625 L 0.21875 0 L 0.078125 0 Z M 0.078125 -0.78125 "/></g></g></g><g fill="#1d150e" fill-opacity="1"><g transform="translate(28.16553, 20.303825)"><g><path d="M 0.28125 0.015625 C 0.226562 0.015625 0.179688 0.00390625 0.140625 -0.015625 C 0.109375 -0.046875 0.0859375 -0.0820312 0.078125 -0.125 C 0.0664062 -0.164062 0.0625 -0.222656 0.0625 -0.296875 L 0.0625 -0.484375 C 0.0625 -0.585938 0.078125 -0.660156 0.109375 -0.703125 C 0.140625 -0.753906 0.195312 -0.78125 0.28125 -0.78125 C 0.34375 -0.78125 0.390625 -0.765625 0.421875 -0.734375 C 0.460938 -0.710938 0.488281 -0.675781 0.5 -0.625 C 0.507812 -0.582031 0.515625 -0.523438 0.515625 -0.453125 L 0.515625 -0.390625 L 0.203125 -0.390625 L 0.203125 -0.234375 C 0.203125 -0.179688 0.207031 -0.144531 0.21875 -0.125 C 0.238281 -0.101562 0.257812 -0.09375 0.28125 -0.09375 C 0.3125 -0.09375 0.332031 -0.101562 0.34375 -0.125 C 0.351562 -0.144531 0.359375 -0.175781 0.359375 -0.21875 L 0.359375 -0.265625 L 0.5 -0.265625 L 0.5 -0.234375 C 0.5 -0.160156 0.484375 -0.0976562 0.453125 -0.046875 C 0.421875 -0.00390625 0.363281 0.015625 0.28125 0.015625 Z M 0.359375 -0.46875 L 0.359375 -0.53125 C 0.359375 -0.582031 0.351562 -0.617188 0.34375 -0.640625 C 0.332031 -0.671875 0.3125 -0.6875 0.28125 -0.6875 C 0.257812 -0.6875 0.242188 -0.679688 0.234375 -0.671875 C 0.222656 -0.660156 0.210938 -0.640625 0.203125 -0.609375 C 0.203125 -0.585938 0.203125 -0.550781 0.203125 -0.5 L 0.203125 -0.46875 Z M 0.359375 -0.46875 "/></g></g></g><g fill="#1d150e" fill-opacity="1"><g transform="translate(28.728807, 20.303825)"><g><path d="M 0.21875 0.015625 C 0.1875 0.015625 0.15625 0.00390625 0.125 -0.015625 C 0.101562 -0.0351562 0.0859375 -0.0546875 0.078125 -0.078125 C 0.0664062 -0.109375 0.0625 -0.140625 0.0625 -0.171875 C 0.0625 -0.234375 0.0703125 -0.28125 0.09375 -0.3125 C 0.125 -0.351562 0.15625 -0.382812 0.1875 -0.40625 C 0.226562 -0.425781 0.285156 -0.453125 0.359375 -0.484375 L 0.359375 -0.546875 C 0.359375 -0.585938 0.351562 -0.617188 0.34375 -0.640625 C 0.332031 -0.671875 0.3125 -0.6875 0.28125 -0.6875 C 0.226562 -0.6875 0.203125 -0.644531 0.203125 -0.5625 L 0.203125 -0.53125 L 0.0625 -0.53125 C 0.0625 -0.625 0.078125 -0.6875 0.109375 -0.71875 C 0.148438 -0.757812 0.210938 -0.78125 0.296875 -0.78125 C 0.367188 -0.78125 0.421875 -0.757812 0.453125 -0.71875 C 0.484375 -0.6875 0.5 -0.628906 0.5 -0.546875 L 0.5 -0.1875 C 0.5 -0.125 0.503906 -0.0625 0.515625 0 L 0.390625 0 C 0.378906 -0.0507812 0.375 -0.0859375 0.375 -0.109375 C 0.363281 -0.078125 0.34375 -0.046875 0.3125 -0.015625 C 0.289062 0.00390625 0.257812 0.015625 0.21875 0.015625 Z M 0.265625 -0.109375 C 0.285156 -0.109375 0.300781 -0.113281 0.3125 -0.125 C 0.332031 -0.144531 0.347656 -0.160156 0.359375 -0.171875 L 0.359375 -0.390625 C 0.328125 -0.367188 0.296875 -0.347656 0.265625 -0.328125 C 0.242188 -0.316406 0.226562 -0.300781 0.21875 -0.28125 C 0.207031 -0.257812 0.203125 -0.238281 0.203125 -0.21875 C 0.203125 -0.1875 0.207031 -0.160156 0.21875 -0.140625 C 0.226562 -0.117188 0.242188 -0.109375 0.265625 -0.109375 Z M 0.265625 -0.109375 "/></g></g></g><g fill="#1d150e" fill-opacity="1"><g transform="translate(29.298773, 20.303825)"><g/></g></g><g fill="#1d150e" fill-opacity="1"><g transform="translate(29.605164, 20.303825)"><g><path d="M 0.28125 0.015625 C 0.226562 0.015625 0.179688 0.00390625 0.140625 -0.015625 C 0.109375 -0.046875 0.0859375 -0.0820312 0.078125 -0.125 C 0.0664062 -0.164062 0.0625 -0.222656 0.0625 -0.296875 L 0.0625 -0.484375 C 0.0625 -0.585938 0.078125 -0.660156 0.109375 -0.703125 C 0.140625 -0.753906 0.195312 -0.78125 0.28125 -0.78125 C 0.34375 -0.78125 0.390625 -0.765625 0.421875 -0.734375 C 0.460938 -0.710938 0.488281 -0.675781 0.5 -0.625 C 0.507812 -0.582031 0.515625 -0.523438 0.515625 -0.453125 L 0.515625 -0.390625 L 0.203125 -0.390625 L 0.203125 -0.234375 C 0.203125 -0.179688 0.207031 -0.144531 0.21875 -0.125 C 0.238281 -0.101562 0.257812 -0.09375 0.28125 -0.09375 C 0.3125 -0.09375 0.332031 -0.101562 0.34375 -0.125 C 0.351562 -0.144531 0.359375 -0.175781 0.359375 -0.21875 L 0.359375 -0.265625 L 0.5 -0.265625 L 0.5 -0.234375 C 0.5 -0.160156 0.484375 -0.0976562 0.453125 -0.046875 C 0.421875 -0.00390625 0.363281 0.015625 0.28125 0.015625 Z M 0.359375 -0.46875 L 0.359375 -0.53125 C 0.359375 -0.582031 0.351562 -0.617188 0.34375 -0.640625 C 0.332031 -0.671875 0.3125 -0.6875 0.28125 -0.6875 C 0.257812 -0.6875 0.242188 -0.679688 0.234375 -0.671875 C 0.222656 -0.660156 0.210938 -0.640625 0.203125 -0.609375 C 0.203125 -0.585938 0.203125 -0.550781 0.203125 -0.5 L 0.203125 -0.46875 Z M 0.359375 -0.46875 "/></g></g></g><g fill="#1d150e" fill-opacity="1"><g transform="translate(30.16844, 20.303825)"><g><path d="M 0.09375 -1.09375 L 0.234375 -1.09375 L 0.234375 0 L 0.09375 0 Z M 0.09375 -1.09375 "/></g></g></g><g fill="#1d150e" fill-opacity="1"><g transform="translate(30.474831, 20.303825)"><g/></g></g><g fill="#1d150e" fill-opacity="1"><g transform="translate(30.781221, 20.303825)"><g><path d="M 0.25 0.015625 C 0.1875 0.015625 0.140625 -0.0078125 0.109375 -0.0625 C 0.078125 -0.113281 0.0625 -0.195312 0.0625 -0.3125 L 0.0625 -0.453125 C 0.0625 -0.554688 0.0703125 -0.632812 0.09375 -0.6875 C 0.125 -0.75 0.175781 -0.78125 0.25 -0.78125 C 0.289062 -0.78125 0.332031 -0.765625 0.375 -0.734375 L 0.375 -1.09375 L 0.515625 -1.09375 L 0.515625 0 L 0.375 0 L 0.375 -0.046875 C 0.34375 -0.00390625 0.300781 0.015625 0.25 0.015625 Z M 0.28125 -0.109375 C 0.3125 -0.109375 0.34375 -0.113281 0.375 -0.125 L 0.375 -0.640625 C 0.34375 -0.660156 0.3125 -0.671875 0.28125 -0.671875 C 0.226562 -0.671875 0.203125 -0.617188 0.203125 -0.515625 L 0.203125 -0.296875 C 0.203125 -0.234375 0.207031 -0.1875 0.21875 -0.15625 C 0.226562 -0.125 0.25 -0.109375 0.28125 -0.109375 Z M 0.28125 -0.109375 "/></g></g></g><g fill="#1d150e" fill-opacity="1"><g transform="translate(31.372594, 20.303825)"><g><path d="M 0.28125 0.015625 C 0.226562 0.015625 0.179688 0.00390625 0.140625 -0.015625 C 0.109375 -0.046875 0.0859375 -0.0820312 0.078125 -0.125 C 0.0664062 -0.164062 0.0625 -0.222656 0.0625 -0.296875 L 0.0625 -0.484375 C 0.0625 -0.585938 0.078125 -0.660156 0.109375 -0.703125 C 0.140625 -0.753906 0.195312 -0.78125 0.28125 -0.78125 C 0.34375 -0.78125 0.390625 -0.765625 0.421875 -0.734375 C 0.460938 -0.710938 0.488281 -0.675781 0.5 -0.625 C 0.507812 -0.582031 0.515625 -0.523438 0.515625 -0.453125 L 0.515625 -0.390625 L 0.203125 -0.390625 L 0.203125 -0.234375 C 0.203125 -0.179688 0.207031 -0.144531 0.21875 -0.125 C 0.238281 -0.101562 0.257812 -0.09375 0.28125 -0.09375 C 0.3125 -0.09375 0.332031 -0.101562 0.34375 -0.125 C 0.351562 -0.144531 0.359375 -0.175781 0.359375 -0.21875 L 0.359375 -0.265625 L 0.5 -0.265625 L 0.5 -0.234375 C 0.5 -0.160156 0.484375 -0.0976562 0.453125 -0.046875 C 0.421875 -0.00390625 0.363281 0.015625 0.28125 0.015625 Z M 0.359375 -0.46875 L 0.359375 -0.53125 C 0.359375 -0.582031 0.351562 -0.617188 0.34375 -0.640625 C 0.332031 -0.671875 0.3125 -0.6875 0.28125 -0.6875 C 0.257812 -0.6875 0.242188 -0.679688 0.234375 -0.671875 C 0.222656 -0.660156 0.210938 -0.640625 0.203125 -0.609375 C 0.203125 -0.585938 0.203125 -0.550781 0.203125 -0.5 L 0.203125 -0.46875 Z M 0.359375 -0.46875 "/></g></g></g><g fill="#1d150e" fill-opacity="1"><g transform="translate(31.93587, 20.303825)"><g><path d="M 0.25 0.015625 C 0.1875 0.015625 0.132812 -0.00390625 0.09375 -0.046875 C 0.0625 -0.0859375 0.0390625 -0.140625 0.03125 -0.203125 L 0.15625 -0.25 C 0.15625 -0.195312 0.164062 -0.15625 0.1875 -0.125 C 0.207031 -0.101562 0.234375 -0.09375 0.265625 -0.09375 C 0.285156 -0.09375 0.300781 -0.0976562 0.3125 -0.109375 C 0.332031 -0.128906 0.34375 -0.148438 0.34375 -0.171875 C 0.34375 -0.203125 0.335938 -0.222656 0.328125 -0.234375 C 0.316406 -0.253906 0.300781 -0.273438 0.28125 -0.296875 L 0.140625 -0.40625 C 0.117188 -0.4375 0.0976562 -0.460938 0.078125 -0.484375 C 0.0546875 -0.515625 0.046875 -0.550781 0.046875 -0.59375 C 0.046875 -0.65625 0.0625 -0.703125 0.09375 -0.734375 C 0.132812 -0.765625 0.1875 -0.78125 0.25 -0.78125 C 0.3125 -0.78125 0.359375 -0.757812 0.390625 -0.71875 C 0.421875 -0.6875 0.441406 -0.640625 0.453125 -0.578125 L 0.359375 -0.546875 C 0.347656 -0.585938 0.332031 -0.617188 0.3125 -0.640625 C 0.300781 -0.671875 0.285156 -0.6875 0.265625 -0.6875 C 0.234375 -0.6875 0.210938 -0.675781 0.203125 -0.65625 C 0.191406 -0.644531 0.1875 -0.628906 0.1875 -0.609375 C 0.1875 -0.578125 0.195312 -0.550781 0.21875 -0.53125 L 0.359375 -0.390625 C 0.390625 -0.359375 0.414062 -0.328125 0.4375 -0.296875 C 0.457031 -0.265625 0.46875 -0.226562 0.46875 -0.1875 C 0.46875 -0.125 0.445312 -0.0703125 0.40625 -0.03125 C 0.375 0 0.320312 0.015625 0.25 0.015625 Z M 0.25 0.015625 "/></g></g></g><g fill="#1d150e" fill-opacity="1"><g transform="translate(32.436263, 20.303825)"><g><path d="M 0.28125 0.015625 C 0.164062 0.015625 0.109375 -0.046875 0.109375 -0.171875 L 0.109375 -0.6875 L 0.03125 -0.6875 L 0.03125 -0.78125 L 0.109375 -0.78125 L 0.109375 -1 L 0.25 -1 L 0.25 -0.78125 L 0.375 -0.78125 L 0.375 -0.6875 L 0.25 -0.6875 L 0.25 -0.1875 C 0.25 -0.15625 0.253906 -0.128906 0.265625 -0.109375 C 0.273438 -0.0976562 0.296875 -0.09375 0.328125 -0.09375 C 0.347656 -0.09375 0.363281 -0.0976562 0.375 -0.109375 L 0.375 0 C 0.34375 0.0078125 0.3125 0.015625 0.28125 0.015625 Z M 0.28125 0.015625 "/></g></g></g><g fill="#1d150e" fill-opacity="1"><g transform="translate(32.84835, 20.303825)"><g><path d="M 0.078125 -1.046875 L 0.21875 -1.046875 L 0.21875 -0.890625 L 0.078125 -0.890625 Z M 0.078125 -0.78125 L 0.21875 -0.78125 L 0.21875 0 L 0.078125 0 Z M 0.078125 -0.78125 "/></g></g></g><g fill="#1d150e" fill-opacity="1"><g transform="translate(33.154741, 20.303825)"><g><path d="M 0.078125 -0.78125 L 0.21875 -0.78125 L 0.21875 -0.703125 C 0.28125 -0.753906 0.34375 -0.78125 0.40625 -0.78125 C 0.445312 -0.78125 0.472656 -0.765625 0.484375 -0.734375 C 0.503906 -0.710938 0.515625 -0.675781 0.515625 -0.625 L 0.515625 0 L 0.375 0 L 0.375 -0.59375 C 0.375 -0.613281 0.367188 -0.628906 0.359375 -0.640625 C 0.359375 -0.660156 0.34375 -0.671875 0.3125 -0.671875 C 0.289062 -0.671875 0.257812 -0.65625 0.21875 -0.625 L 0.21875 0 L 0.078125 0 Z M 0.078125 -0.78125 "/></g></g></g><g fill="#1d150e" fill-opacity="1"><g transform="translate(33.7421, 20.303825)"><g><path d="M 0.28125 0.015625 C 0.195312 0.015625 0.140625 -0.0078125 0.109375 -0.0625 C 0.078125 -0.113281 0.0625 -0.1875 0.0625 -0.28125 L 0.0625 -0.5 C 0.0625 -0.59375 0.078125 -0.660156 0.109375 -0.703125 C 0.140625 -0.753906 0.195312 -0.78125 0.28125 -0.78125 C 0.363281 -0.78125 0.421875 -0.753906 0.453125 -0.703125 C 0.492188 -0.660156 0.515625 -0.59375 0.515625 -0.5 L 0.515625 -0.28125 C 0.515625 -0.1875 0.492188 -0.113281 0.453125 -0.0625 C 0.421875 -0.0078125 0.363281 0.015625 0.28125 0.015625 Z M 0.28125 -0.09375 C 0.3125 -0.09375 0.332031 -0.0976562 0.34375 -0.109375 C 0.351562 -0.128906 0.359375 -0.148438 0.359375 -0.171875 C 0.367188 -0.191406 0.375 -0.222656 0.375 -0.265625 L 0.375 -0.515625 C 0.375 -0.546875 0.367188 -0.570312 0.359375 -0.59375 C 0.359375 -0.625 0.351562 -0.644531 0.34375 -0.65625 C 0.332031 -0.675781 0.3125 -0.6875 0.28125 -0.6875 C 0.257812 -0.6875 0.242188 -0.675781 0.234375 -0.65625 C 0.222656 -0.644531 0.210938 -0.625 0.203125 -0.59375 C 0.203125 -0.570312 0.203125 -0.546875 0.203125 -0.515625 L 0.203125 -0.265625 C 0.203125 -0.222656 0.203125 -0.191406 0.203125 -0.171875 C 0.210938 -0.148438 0.222656 -0.128906 0.234375 -0.109375 C 0.242188 -0.0976562 0.257812 -0.09375 0.28125 -0.09375 Z M 0.28125 -0.09375 "/></g></g></g><g clip-path="url(#85845ae7eb)"><path fill="#1d150e" d="M 12.796875 9.953125 L 13.640625 9.953125 L 13.640625 9.835938 C 13.597656 9.792969 13.464844 9.792969 13.21875 9.792969 C 12.96875 9.792969 12.839844 9.792969 12.796875 9.835938 L 12.796875 9.953125 " fill-opacity="1" fill-rule="evenodd"/></g><path fill="#1d150e" d="M 13.707031 10.273438 L 13.707031 10.113281 L 12.726562 10.113281 L 12.726562 10.273438 L 13.707031 10.273438 " fill-opacity="1" fill-rule="evenodd"/><path fill="#1d150e" d="M 13.632812 10.59375 L 12.804688 10.59375 L 12.804688 10.433594 L 13.632812 10.433594 L 13.632812 10.59375 " fill-opacity="1" fill-rule="evenodd"/><path fill="#1d150e" d="M 13.632812 10.914062 L 12.804688 10.914062 L 12.804688 10.753906 L 13.632812 10.753906 L 13.632812 10.914062 " fill-opacity="1" fill-rule="evenodd"/><path fill="#1d150e" d="M 13.632812 11.074219 L 12.804688 11.074219 L 12.804688 11.234375 L 13.632812 11.234375 L 13.632812 11.074219 " fill-opacity="1" fill-rule="evenodd"/><path fill="#1d150e" d="M 12.804688 11.554688 L 13.632812 11.554688 L 13.632812 11.394531 L 12.804688 11.394531 L 12.804688 11.554688 " fill-opacity="1" fill-rule="evenodd"/><path fill="#1d150e" d="M 12.796875 11.875 L 13.632812 11.875 C 13.628906 11.828125 13.632812 11.769531 13.632812 11.714844 L 12.804688 11.714844 C 12.804688 11.769531 12.800781 11.828125 12.796875 11.875 " fill-opacity="1" fill-rule="evenodd"/><path fill="#1d150e" d="M 12.75 12.195312 L 13.6875 12.195312 C 13.675781 12.144531 13.664062 12.09375 13.65625 12.035156 L 12.78125 12.035156 C 12.773438 12.09375 12.761719 12.144531 12.75 12.195312 " fill-opacity="1" fill-rule="evenodd"/><path fill="#1d150e" d="M 13.8125 12.515625 C 13.789062 12.46875 13.757812 12.414062 13.738281 12.355469 L 12.699219 12.355469 C 12.675781 12.414062 12.648438 12.46875 12.621094 12.515625 L 13.8125 12.515625 " fill-opacity="1" fill-rule="evenodd"/><g clip-path="url(#079eb75d8f)"><path fill="#1d150e" d="M 12.34375 12.835938 C 12.40625 12.78125 12.429688 12.769531 12.507812 12.675781 L 13.929688 12.675781 C 14.003906 12.765625 14.03125 12.78125 14.09375 12.835938 L 12.34375 12.835938 " fill-opacity="1" fill-rule="evenodd"/></g><g clip-path="url(#f512a81c68)"><path fill="#1d150e" d="M 12.050781 13.15625 L 14.386719 13.15625 C 14.351562 13.101562 14.3125 13.046875 14.269531 12.996094 L 12.167969 12.996094 C 12.121094 13.046875 12.082031 13.101562 12.050781 13.15625 " fill-opacity="1" fill-rule="evenodd"/></g><g clip-path="url(#6aa60cbe03)"><path fill="#1d150e" d="M 11.929688 13.476562 L 14.507812 13.476562 C 14.496094 13.425781 14.480469 13.367188 14.460938 13.316406 L 11.976562 13.316406 C 11.957031 13.367188 11.941406 13.425781 11.929688 13.476562 " fill-opacity="1" fill-rule="evenodd"/></g><g clip-path="url(#24153cf69e)"><path fill="#1d150e" d="M 11.894531 13.796875 L 14.539062 13.796875 L 14.539062 13.730469 C 14.539062 13.699219 14.535156 13.667969 14.535156 13.636719 L 11.902344 13.636719 C 11.898438 13.671875 11.898438 13.695312 11.894531 13.730469 L 11.894531 13.796875 " fill-opacity="1" fill-rule="evenodd"/></g><g clip-path="url(#9d4edc9d61)"><path fill="#1d150e" d="M 11.894531 13.957031 L 14.539062 13.957031 L 14.539062 14.117188 L 11.894531 14.117188 L 11.894531 13.957031 " fill-opacity="1" fill-rule="evenodd"/></g><g clip-path="url(#235b7f7f49)"><path fill="#1d150e" d="M 11.894531 14.4375 L 14.539062 14.4375 L 14.539062 14.277344 L 11.894531 14.277344 L 11.894531 14.4375 " fill-opacity="1" fill-rule="evenodd"/></g><g clip-path="url(#2e0d57875e)"><path fill="#1d150e" d="M 11.894531 14.757812 L 14.539062 14.757812 L 14.539062 14.597656 L 11.894531 14.597656 L 11.894531 14.757812 " fill-opacity="1" fill-rule="evenodd"/></g><g clip-path="url(#a849ff5b9f)"><path fill="#1d150e" d="M 11.894531 15.078125 L 14.539062 15.078125 L 14.539062 14.917969 L 11.894531 14.917969 L 11.894531 15.078125 " fill-opacity="1" fill-rule="evenodd"/></g><g clip-path="url(#04a54db6af)"><path fill="#1d150e" d="M 11.894531 15.402344 L 14.539062 15.402344 L 14.539062 15.238281 L 11.894531 15.238281 L 11.894531 15.402344 " fill-opacity="1" fill-rule="evenodd"/></g><g clip-path="url(#3236ceae6c)"><path fill="#1d150e" d="M 11.894531 15.722656 L 14.539062 15.722656 L 14.539062 15.5625 L 11.894531 15.5625 L 11.894531 15.722656 " fill-opacity="1" fill-rule="evenodd"/></g><g clip-path="url(#c70926d1d5)"><path fill="#1d150e" d="M 11.894531 16.042969 L 14.539062 16.042969 L 14.539062 15.882812 L 11.894531 15.882812 L 11.894531 16.042969 " fill-opacity="1" fill-rule="evenodd"/></g><g clip-path="url(#f665b5ba10)"><path fill="#1d150e" d="M 11.894531 16.363281 L 14.539062 16.363281 L 14.539062 16.203125 L 11.894531 16.203125 L 11.894531 16.363281 " fill-opacity="1" fill-rule="evenodd"/></g><g clip-path="url(#ce2d380fe7)"><path fill="#1d150e" d="M 13.507812 16.683594 C 13.492188 16.625 13.472656 16.566406 13.457031 16.523438 L 14.539062 16.523438 L 14.539062 16.683594 L 13.507812 16.683594 " fill-opacity="1" fill-rule="evenodd"/></g><g clip-path="url(#3ce6c57719)"><path fill="#1d150e" d="M 13.578125 17.003906 C 13.570312 16.941406 13.5625 16.898438 13.550781 16.84375 L 14.539062 16.84375 L 14.539062 17.003906 L 13.578125 17.003906 " fill-opacity="1" fill-rule="evenodd"/></g><g clip-path="url(#778e2b5f5c)"><path fill="#1d150e" d="M 13.601562 17.324219 C 13.601562 17.273438 13.601562 17.214844 13.597656 17.164062 L 14.539062 17.164062 L 14.539062 17.324219 L 13.601562 17.324219 " fill-opacity="1" fill-rule="evenodd"/></g><g clip-path="url(#2adb88e66a)"><path fill="#1d150e" d="M 13.550781 17.644531 C 13.566406 17.589844 13.582031 17.539062 13.585938 17.484375 L 14.539062 17.484375 L 14.539062 17.644531 L 13.550781 17.644531 " fill-opacity="1" fill-rule="evenodd"/></g><g clip-path="url(#35732cc800)"><path fill="#1d150e" d="M 13.359375 17.964844 C 13.40625 17.917969 13.453125 17.859375 13.484375 17.804688 L 14.539062 17.804688 L 14.539062 17.964844 L 13.359375 17.964844 " fill-opacity="1" fill-rule="evenodd"/></g><g clip-path="url(#ec65d92814)"><path fill="#1d150e" d="M 12.691406 18.285156 C 12.730469 18.222656 12.777344 18.1875 12.839844 18.1875 C 12.945312 18.171875 13.007812 18.15625 13.085938 18.125 L 14.539062 18.125 L 14.539062 18.285156 L 12.691406 18.285156 " fill-opacity="1" fill-rule="evenodd"/></g><g clip-path="url(#f5ca9504a0)"><path fill="#1d150e" d="M 12.605469 18.605469 L 14.539062 18.605469 L 14.539062 18.445312 L 12.636719 18.445312 C 12.617188 18.445312 12.605469 18.605469 12.605469 18.605469 " fill-opacity="1" fill-rule="evenodd"/></g><g clip-path="url(#b59776d82d)"><path fill="#1d150e" d="M 12.398438 18.285156 C 12.367188 18.226562 12.328125 18.1875 12.277344 18.1875 C 12.179688 18.171875 12.101562 18.152344 12.027344 18.125 C 11.933594 18.125 11.894531 18.125 11.894531 18.125 L 11.894531 18.285156 L 12.398438 18.285156 " fill-opacity="1" fill-rule="evenodd"/><path fill="#1d150e" d="M 12.484375 18.605469 L 11.894531 18.605469 L 11.894531 18.445312 L 12.453125 18.445312 C 12.464844 18.445312 12.484375 18.605469 12.484375 18.605469 " fill-opacity="1" fill-rule="evenodd"/></g><g clip-path="url(#bf72073d63)"><path fill="#1d150e" d="M 12.582031 18.925781 L 14.539062 18.925781 L 14.539062 18.765625 L 12.589844 18.765625 C 12.585938 18.816406 12.582031 18.871094 12.582031 18.925781 " fill-opacity="1" fill-rule="evenodd"/></g><g clip-path="url(#40484fa117)"><path fill="#1d150e" d="M 12.496094 18.765625 L 11.894531 18.765625 L 11.894531 18.925781 L 12.515625 18.925781 C 12.511719 18.871094 12.507812 18.816406 12.503906 18.765625 " fill-opacity="1" fill-rule="evenodd"/></g><g clip-path="url(#7aa1acbebe)"><path fill="#1d150e" d="M 12.53125 19.246094 C 12.527344 19.191406 12.527344 19.140625 12.523438 19.085938 L 11.894531 19.085938 L 11.894531 19.246094 L 12.53125 19.246094 " fill-opacity="1" fill-rule="evenodd"/></g><g clip-path="url(#05157d3d24)"><path fill="#1d150e" d="M 12.578125 19.246094 L 14.539062 19.246094 L 14.539062 19.085938 L 12.578125 19.085938 C 12.574219 19.140625 12.574219 19.191406 12.578125 19.246094 " fill-opacity="1" fill-rule="evenodd"/></g><g clip-path="url(#a57c63f1e1)"><path fill="#1d150e" d="M 12.578125 19.566406 L 14.539062 19.566406 L 14.539062 19.40625 L 12.578125 19.40625 C 12.578125 19.453125 12.578125 19.503906 12.578125 19.566406 " fill-opacity="1" fill-rule="evenodd"/></g><g clip-path="url(#09a02c7bf2)"><path fill="#1d150e" d="M 12.53125 19.566406 C 12.53125 19.503906 12.53125 19.453125 12.53125 19.40625 L 11.894531 19.40625 L 11.894531 19.566406 L 12.53125 19.566406 " fill-opacity="1" fill-rule="evenodd"/></g><g clip-path="url(#697c2943ad)"><path fill="#1d150e" d="M 12.582031 19.886719 L 14.539062 19.886719 L 14.539062 19.726562 L 12.582031 19.726562 C 12.582031 19.792969 12.582031 19.84375 12.582031 19.886719 " fill-opacity="1" fill-rule="evenodd"/></g><g clip-path="url(#d6d20874be)"><path fill="#1d150e" d="M 12.53125 19.886719 C 12.53125 19.84375 12.53125 19.792969 12.53125 19.726562 L 11.894531 19.726562 L 11.894531 19.886719 L 12.53125 19.886719 " fill-opacity="1" fill-rule="evenodd"/></g><g clip-path="url(#68d90fd2da)"><path fill="#1d150e" d="M 12.707031 20.207031 L 14.539062 20.207031 L 14.539062 20.046875 L 12.59375 20.046875 C 12.609375 20.105469 12.640625 20.160156 12.707031 20.207031 " fill-opacity="1" fill-rule="evenodd"/></g><g clip-path="url(#e487706a3d)"><path fill="#1d150e" d="M 12.410156 20.207031 C 12.476562 20.160156 12.507812 20.105469 12.523438 20.046875 L 11.894531 20.046875 L 11.894531 20.207031 L 12.410156 20.207031 " fill-opacity="1" fill-rule="evenodd"/></g><g clip-path="url(#a56bf8cd0d)"><path fill="#1d150e" d="M 11.894531 20.367188 C 11.617188 20.40625 11.847656 20.527344 11.894531 20.527344 L 14.539062 20.527344 L 14.539062 20.367188 L 13.242188 20.367188 C 13.519531 20.40625 13.320312 20.515625 13.273438 20.515625 L 11.894531 20.515625 L 11.894531 20.367188 " fill-opacity="1" fill-rule="evenodd"/></g></svg>