<svg xmlns="http://www.w3.org/2000/svg" xmlns:xlink="http://www.w3.org/1999/xlink" width="40" zoomAndPan="magnify" viewBox="0 0 30 30.000001" height="40" preserveAspectRatio="xMidYMid meet" version="1.0"><defs><g/><clipPath id="3544189e77"><path d="M 6 7.011719 L 7.710938 7.011719 L 7.710938 8 L 6 8 Z M 6 7.011719 " clip-rule="nonzero"/></clipPath><clipPath id="4857990c86"><path d="M 6 8 L 7.710938 8 L 7.710938 9 L 6 9 Z M 6 8 " clip-rule="nonzero"/></clipPath><clipPath id="907b825365"><path d="M 6 9 L 7.710938 9 L 7.710938 10 L 6 10 Z M 6 9 " clip-rule="nonzero"/></clipPath><clipPath id="f8b29207cc"><path d="M 5.535156 9 L 7.710938 9 L 7.710938 10 L 5.535156 10 Z M 5.535156 9 " clip-rule="nonzero"/></clipPath><clipPath id="77d6617df7"><path d="M 5.535156 9 L 7.710938 9 L 7.710938 11 L 5.535156 11 Z M 5.535156 9 " clip-rule="nonzero"/></clipPath><clipPath id="7181506a0b"><path d="M 5.640625 10.167969 L 7.710938 10.167969 L 7.710938 10.304688 L 5.640625 10.304688 Z M 5.640625 10.167969 " clip-rule="nonzero"/></clipPath><clipPath id="f6944d17f6"><path d="M 5.640625 10.429688 L 7.710938 10.429688 L 7.710938 10.566406 L 5.640625 10.566406 Z M 5.640625 10.429688 " clip-rule="nonzero"/></clipPath><clipPath id="5e2b26dde7"><path d="M 5.640625 10.691406 L 7.710938 10.691406 L 7.710938 10.828125 L 5.640625 10.828125 Z M 5.640625 10.691406 " clip-rule="nonzero"/></clipPath><clipPath id="b6bbbd8c9a"><path d="M 5.640625 10.953125 L 7.710938 10.953125 L 7.710938 11.089844 L 5.640625 11.089844 Z M 5.640625 10.953125 " clip-rule="nonzero"/></clipPath><clipPath id="db6ebefb87"><path d="M 5.640625 11.214844 L 7.710938 11.214844 L 7.710938 11.351562 L 5.640625 11.351562 Z M 5.640625 11.214844 " clip-rule="nonzero"/></clipPath><clipPath id="23d519498c"><path d="M 5.640625 11.476562 L 7.710938 11.476562 L 7.710938 11.613281 L 5.640625 11.613281 Z M 5.640625 11.476562 " clip-rule="nonzero"/></clipPath><clipPath id="3e39924d2b"><path d="M 5.640625 11.738281 L 7.710938 11.738281 L 7.710938 11.875 L 5.640625 11.875 Z M 5.640625 11.738281 " clip-rule="nonzero"/></clipPath><clipPath id="55382bff97"><path d="M 5.640625 12 L 7.710938 12 L 7.710938 12.136719 L 5.640625 12.136719 Z M 5.640625 12 " clip-rule="nonzero"/></clipPath><clipPath id="25f547780e"><path d="M 5.640625 12.261719 L 7.710938 12.261719 L 7.710938 12.398438 L 5.640625 12.398438 Z M 5.640625 12.261719 " clip-rule="nonzero"/></clipPath><clipPath id="3a0e74f8a8"><path d="M 6.910156 12.523438 L 7.710938 12.523438 L 7.710938 12.660156 L 6.910156 12.660156 Z M 6.910156 12.523438 " clip-rule="nonzero"/></clipPath><clipPath id="ecd79e19a9"><path d="M 6.988281 12.785156 L 7.710938 12.785156 L 7.710938 12.921875 L 6.988281 12.921875 Z M 6.988281 12.785156 " clip-rule="nonzero"/></clipPath><clipPath id="25c40c37d2"><path d="M 7.027344 13.046875 L 7.710938 13.046875 L 7.710938 13.183594 L 7.027344 13.183594 Z M 7.027344 13.046875 " clip-rule="nonzero"/></clipPath><clipPath id="62c1e9861e"><path d="M 6.988281 13.308594 L 7.710938 13.308594 L 7.710938 13.445312 L 6.988281 13.445312 Z M 6.988281 13.308594 " clip-rule="nonzero"/></clipPath><clipPath id="856c6ad0ad"><path d="M 6.832031 13.570312 L 7.710938 13.570312 L 7.710938 13.707031 L 6.832031 13.707031 Z M 6.832031 13.570312 " clip-rule="nonzero"/></clipPath><clipPath id="d2e53be5a6"><path d="M 6.289062 13.832031 L 7.710938 13.832031 L 7.710938 13.96875 L 6.289062 13.96875 Z M 6.289062 13.832031 " clip-rule="nonzero"/></clipPath><clipPath id="3f20b6974a"><path d="M 6.222656 14.09375 L 7.710938 14.09375 L 7.710938 14.230469 L 6.222656 14.230469 Z M 6.222656 14.09375 " clip-rule="nonzero"/></clipPath><clipPath id="e0de0f6ee0"><path d="M 5.535156 13 L 7 13 L 7 14 L 5.535156 14 Z M 5.535156 13 " clip-rule="nonzero"/></clipPath><clipPath id="436c5985ef"><path d="M 5.535156 14 L 7 14 L 7 15 L 5.535156 15 Z M 5.535156 14 " clip-rule="nonzero"/></clipPath><clipPath id="3bc2291477"><path d="M 6.203125 14.355469 L 7.710938 14.355469 L 7.710938 14.492188 L 6.203125 14.492188 Z M 6.203125 14.355469 " clip-rule="nonzero"/></clipPath><clipPath id="977d5d6468"><path d="M 5.535156 14 L 7 14 L 7 15 L 5.535156 15 Z M 5.535156 14 " clip-rule="nonzero"/></clipPath><clipPath id="cae8d14e35"><path d="M 6.191406 14.617188 L 7.710938 14.617188 L 7.710938 14.753906 L 6.191406 14.753906 Z M 6.191406 14.617188 " clip-rule="nonzero"/></clipPath><clipPath id="e5956e9007"><path d="M 6.191406 14.878906 L 7.710938 14.878906 L 7.710938 15.015625 L 6.191406 15.015625 Z M 6.191406 14.878906 " clip-rule="nonzero"/></clipPath><clipPath id="c061eca736"><path d="M 5.535156 14 L 7 14 L 7 15.722656 L 5.535156 15.722656 Z M 5.535156 14 " clip-rule="nonzero"/></clipPath><clipPath id="e65f1dd6f6"><path d="M 6.203125 15.140625 L 7.710938 15.140625 L 7.710938 15.277344 L 6.203125 15.277344 Z M 6.203125 15.140625 " clip-rule="nonzero"/></clipPath><clipPath id="36e1427ee2"><path d="M 5.535156 15 L 7 15 L 7 15.722656 L 5.535156 15.722656 Z M 5.535156 15 " clip-rule="nonzero"/></clipPath><clipPath id="c72a45ef3b"><path d="M 6.210938 15.402344 L 7.710938 15.402344 L 7.710938 15.539062 L 6.210938 15.539062 Z M 6.210938 15.402344 " clip-rule="nonzero"/></clipPath><clipPath id="1658741ccc"><path d="M 5.535156 15 L 7 15 L 7 15.722656 L 5.535156 15.722656 Z M 5.535156 15 " clip-rule="nonzero"/></clipPath><clipPath id="e285ed102d"><path d="M 5.535156 15.652344 L 7.710938 15.652344 L 7.710938 15.722656 L 5.535156 15.722656 Z M 5.535156 15.652344 " clip-rule="nonzero"/></clipPath></defs><g fill="#1d150e" fill-opacity="1"><g transform="translate(9.974532, 15.611757)"><g><path d="M 0.0625 -0.890625 L 0.265625 -0.890625 C 0.359375 -0.890625 0.425781 -0.863281 0.46875 -0.8125 C 0.507812 -0.769531 0.53125 -0.703125 0.53125 -0.609375 L 0.53125 -0.296875 C 0.53125 -0.191406 0.507812 -0.113281 0.46875 -0.0625 C 0.425781 -0.0195312 0.359375 0 0.265625 0 L 0.0625 0 Z M 0.265625 -0.09375 C 0.304688 -0.09375 0.335938 -0.0976562 0.359375 -0.109375 C 0.378906 -0.128906 0.390625 -0.148438 0.390625 -0.171875 C 0.398438 -0.203125 0.40625 -0.25 0.40625 -0.3125 L 0.40625 -0.59375 C 0.40625 -0.644531 0.398438 -0.679688 0.390625 -0.703125 C 0.378906 -0.734375 0.363281 -0.753906 0.34375 -0.765625 C 0.332031 -0.785156 0.304688 -0.796875 0.265625 -0.796875 L 0.1875 -0.796875 L 0.1875 -0.09375 Z M 0.265625 -0.09375 "/></g></g></g><g fill="#1d150e" fill-opacity="1"><g transform="translate(10.550661, 15.611757)"><g><path d="M 0.0625 -0.84375 L 0.1875 -0.84375 L 0.1875 -0.71875 L 0.0625 -0.71875 Z M 0.0625 -0.625 L 0.1875 -0.625 L 0.1875 0 L 0.0625 0 Z M 0.0625 -0.625 "/></g></g></g><g fill="#1d150e" fill-opacity="1"><g transform="translate(10.80101, 15.611757)"><g><path d="M 0.203125 0.015625 C 0.148438 0.015625 0.109375 0 0.078125 -0.03125 C 0.046875 -0.0703125 0.03125 -0.117188 0.03125 -0.171875 L 0.125 -0.203125 C 0.132812 -0.160156 0.144531 -0.128906 0.15625 -0.109375 C 0.164062 -0.0859375 0.1875 -0.078125 0.21875 -0.078125 C 0.238281 -0.078125 0.253906 -0.0820312 0.265625 -0.09375 C 0.273438 -0.101562 0.28125 -0.117188 0.28125 -0.140625 C 0.28125 -0.160156 0.273438 -0.175781 0.265625 -0.1875 C 0.253906 -0.207031 0.242188 -0.222656 0.234375 -0.234375 L 0.125 -0.328125 C 0.09375 -0.347656 0.0703125 -0.367188 0.0625 -0.390625 C 0.0507812 -0.421875 0.046875 -0.453125 0.046875 -0.484375 C 0.046875 -0.535156 0.0546875 -0.570312 0.078125 -0.59375 C 0.109375 -0.625 0.148438 -0.640625 0.203125 -0.640625 C 0.253906 -0.640625 0.289062 -0.625 0.3125 -0.59375 C 0.34375 -0.5625 0.359375 -0.519531 0.359375 -0.46875 L 0.28125 -0.4375 C 0.28125 -0.476562 0.273438 -0.503906 0.265625 -0.515625 C 0.253906 -0.535156 0.234375 -0.546875 0.203125 -0.546875 C 0.191406 -0.546875 0.175781 -0.539062 0.15625 -0.53125 C 0.144531 -0.519531 0.140625 -0.503906 0.140625 -0.484375 C 0.140625 -0.460938 0.148438 -0.441406 0.171875 -0.421875 L 0.296875 -0.328125 C 0.316406 -0.296875 0.332031 -0.265625 0.34375 -0.234375 C 0.363281 -0.210938 0.375 -0.1875 0.375 -0.15625 C 0.375 -0.101562 0.359375 -0.0625 0.328125 -0.03125 C 0.296875 0 0.253906 0.015625 0.203125 0.015625 Z M 0.203125 0.015625 "/></g></g></g><g fill="#1d150e" fill-opacity="1"><g transform="translate(11.209876, 15.611757)"><g><path d="M 0.09375 -0.546875 L 0.015625 -0.546875 L 0.015625 -0.625 L 0.09375 -0.625 L 0.09375 -0.671875 C 0.09375 -0.710938 0.09375 -0.742188 0.09375 -0.765625 C 0.101562 -0.796875 0.117188 -0.816406 0.140625 -0.828125 C 0.160156 -0.847656 0.191406 -0.859375 0.234375 -0.859375 C 0.253906 -0.859375 0.28125 -0.851562 0.3125 -0.84375 L 0.3125 -0.765625 C 0.289062 -0.765625 0.273438 -0.765625 0.265625 -0.765625 C 0.242188 -0.765625 0.226562 -0.753906 0.21875 -0.734375 C 0.21875 -0.722656 0.21875 -0.707031 0.21875 -0.6875 L 0.21875 -0.625 L 0.3125 -0.625 L 0.3125 -0.546875 L 0.21875 -0.546875 L 0.21875 0 L 0.09375 0 Z M 0.09375 -0.546875 "/></g></g></g><g fill="#1d150e" fill-opacity="1"><g transform="translate(11.523632, 15.611757)"><g><path d="M 0.0625 -0.625 L 0.171875 -0.625 L 0.171875 -0.546875 C 0.203125 -0.578125 0.226562 -0.597656 0.25 -0.609375 C 0.269531 -0.628906 0.289062 -0.640625 0.3125 -0.640625 C 0.320312 -0.640625 0.332031 -0.640625 0.34375 -0.640625 L 0.34375 -0.515625 C 0.3125 -0.515625 0.289062 -0.515625 0.28125 -0.515625 C 0.257812 -0.515625 0.238281 -0.507812 0.21875 -0.5 C 0.207031 -0.5 0.191406 -0.488281 0.171875 -0.46875 L 0.171875 0 L 0.0625 0 Z M 0.0625 -0.625 "/></g></g></g><g fill="#1d150e" fill-opacity="1"><g transform="translate(11.874557, 15.611757)"><g><path d="M 0.15625 0.015625 C 0.113281 0.015625 0.0859375 0.00390625 0.078125 -0.015625 C 0.0664062 -0.046875 0.0625 -0.0820312 0.0625 -0.125 L 0.0625 -0.625 L 0.171875 -0.625 L 0.171875 -0.15625 C 0.171875 -0.132812 0.171875 -0.113281 0.171875 -0.09375 C 0.179688 -0.0820312 0.195312 -0.078125 0.21875 -0.078125 C 0.238281 -0.078125 0.265625 -0.09375 0.296875 -0.125 L 0.296875 -0.625 L 0.421875 -0.625 L 0.421875 0 L 0.296875 0 L 0.296875 -0.0625 C 0.253906 -0.0078125 0.207031 0.015625 0.15625 0.015625 Z M 0.15625 0.015625 "/></g></g></g><g fill="#1d150e" fill-opacity="1"><g transform="translate(12.355575, 15.611757)"><g><path d="M 0.234375 0.015625 C 0.140625 0.015625 0.09375 -0.0351562 0.09375 -0.140625 L 0.09375 -0.546875 L 0.03125 -0.546875 L 0.03125 -0.625 L 0.09375 -0.625 L 0.09375 -0.8125 L 0.203125 -0.8125 L 0.203125 -0.625 L 0.3125 -0.625 L 0.3125 -0.546875 L 0.203125 -0.546875 L 0.203125 -0.15625 C 0.203125 -0.125 0.207031 -0.101562 0.21875 -0.09375 C 0.226562 -0.0820312 0.242188 -0.078125 0.265625 -0.078125 C 0.273438 -0.078125 0.289062 -0.078125 0.3125 -0.078125 L 0.3125 0 C 0.28125 0.0078125 0.253906 0.015625 0.234375 0.015625 Z M 0.234375 0.015625 "/></g></g></g><g fill="#1d150e" fill-opacity="1"><g transform="translate(12.692289, 15.611757)"><g><path d="M 0.171875 0.015625 C 0.148438 0.015625 0.128906 0.0078125 0.109375 0 C 0.0859375 -0.0195312 0.0703125 -0.0390625 0.0625 -0.0625 C 0.0507812 -0.0820312 0.046875 -0.109375 0.046875 -0.140625 C 0.046875 -0.191406 0.0546875 -0.234375 0.078125 -0.265625 C 0.0976562 -0.296875 0.125 -0.316406 0.15625 -0.328125 C 0.1875 -0.347656 0.234375 -0.367188 0.296875 -0.390625 L 0.296875 -0.4375 C 0.296875 -0.476562 0.289062 -0.503906 0.28125 -0.515625 C 0.269531 -0.535156 0.253906 -0.546875 0.234375 -0.546875 C 0.191406 -0.546875 0.171875 -0.519531 0.171875 -0.46875 L 0.171875 -0.4375 L 0.046875 -0.4375 C 0.046875 -0.507812 0.0625 -0.5625 0.09375 -0.59375 C 0.125 -0.625 0.171875 -0.640625 0.234375 -0.640625 C 0.296875 -0.640625 0.335938 -0.625 0.359375 -0.59375 C 0.390625 -0.5625 0.40625 -0.507812 0.40625 -0.4375 L 0.40625 -0.15625 C 0.40625 -0.101562 0.410156 -0.0507812 0.421875 0 L 0.3125 0 C 0.300781 -0.0390625 0.296875 -0.0703125 0.296875 -0.09375 C 0.285156 -0.0625 0.269531 -0.0351562 0.25 -0.015625 C 0.226562 0.00390625 0.203125 0.015625 0.171875 0.015625 Z M 0.21875 -0.09375 C 0.226562 -0.09375 0.238281 -0.0976562 0.25 -0.109375 C 0.269531 -0.117188 0.285156 -0.128906 0.296875 -0.140625 L 0.296875 -0.328125 C 0.265625 -0.304688 0.238281 -0.289062 0.21875 -0.28125 C 0.207031 -0.269531 0.191406 -0.253906 0.171875 -0.234375 C 0.160156 -0.210938 0.15625 -0.191406 0.15625 -0.171875 C 0.15625 -0.148438 0.160156 -0.128906 0.171875 -0.109375 C 0.179688 -0.0976562 0.195312 -0.09375 0.21875 -0.09375 Z M 0.21875 -0.09375 "/></g></g></g><g fill="#1d150e" fill-opacity="1"><g transform="translate(13.158003, 15.611757)"><g/></g></g><g fill="#1d150e" fill-opacity="1"><g transform="translate(13.408352, 15.611757)"><g><path d="M 0.234375 0.015625 C 0.179688 0.015625 0.140625 0.00390625 0.109375 -0.015625 C 0.0859375 -0.0351562 0.0703125 -0.0625 0.0625 -0.09375 C 0.0507812 -0.132812 0.046875 -0.1875 0.046875 -0.25 L 0.046875 -0.390625 C 0.046875 -0.472656 0.0546875 -0.535156 0.078125 -0.578125 C 0.109375 -0.617188 0.160156 -0.640625 0.234375 -0.640625 C 0.285156 -0.640625 0.320312 -0.628906 0.34375 -0.609375 C 0.375 -0.585938 0.390625 -0.554688 0.390625 -0.515625 C 0.398438 -0.484375 0.40625 -0.429688 0.40625 -0.359375 L 0.40625 -0.3125 L 0.171875 -0.3125 L 0.171875 -0.1875 C 0.171875 -0.144531 0.175781 -0.113281 0.1875 -0.09375 C 0.195312 -0.0820312 0.210938 -0.078125 0.234375 -0.078125 C 0.253906 -0.078125 0.269531 -0.0820312 0.28125 -0.09375 C 0.289062 -0.113281 0.296875 -0.144531 0.296875 -0.1875 L 0.296875 -0.21875 L 0.40625 -0.21875 L 0.40625 -0.203125 C 0.40625 -0.128906 0.390625 -0.0703125 0.359375 -0.03125 C 0.335938 0 0.296875 0.015625 0.234375 0.015625 Z M 0.296875 -0.375 L 0.296875 -0.4375 C 0.296875 -0.476562 0.289062 -0.503906 0.28125 -0.515625 C 0.28125 -0.535156 0.265625 -0.546875 0.234375 -0.546875 C 0.210938 -0.546875 0.195312 -0.539062 0.1875 -0.53125 C 0.175781 -0.53125 0.171875 -0.519531 0.171875 -0.5 C 0.171875 -0.476562 0.171875 -0.445312 0.171875 -0.40625 L 0.171875 -0.375 Z M 0.296875 -0.375 "/></g></g></g><g fill="#1d150e" fill-opacity="1"><g transform="translate(13.8686, 15.611757)"><g><path d="M 0.0625 -0.890625 L 0.1875 -0.890625 L 0.1875 0 L 0.0625 0 Z M 0.0625 -0.890625 "/></g></g></g><g fill="#1d150e" fill-opacity="1"><g transform="translate(14.118948, 15.611757)"><g/></g></g><g fill="#1d150e" fill-opacity="1"><g transform="translate(14.369297, 15.611757)"><g><path d="M 0.015625 -0.625 L 0.140625 -0.625 L 0.21875 -0.125 L 0.296875 -0.625 L 0.40625 -0.625 L 0.28125 0 L 0.140625 0 Z M 0.015625 -0.625 "/></g></g></g><g fill="#1d150e" fill-opacity="1"><g transform="translate(14.790189, 15.611757)"><g><path d="M 0.0625 -0.84375 L 0.1875 -0.84375 L 0.1875 -0.71875 L 0.0625 -0.71875 Z M 0.0625 -0.625 L 0.1875 -0.625 L 0.1875 0 L 0.0625 0 Z M 0.0625 -0.625 "/></g></g></g><g fill="#1d150e" fill-opacity="1"><g transform="translate(15.040537, 15.611757)"><g><path d="M 0.171875 0.015625 C 0.148438 0.015625 0.128906 0.0078125 0.109375 0 C 0.0859375 -0.0195312 0.0703125 -0.0390625 0.0625 -0.0625 C 0.0507812 -0.0820312 0.046875 -0.109375 0.046875 -0.140625 C 0.046875 -0.191406 0.0546875 -0.234375 0.078125 -0.265625 C 0.0976562 -0.296875 0.125 -0.316406 0.15625 -0.328125 C 0.1875 -0.347656 0.234375 -0.367188 0.296875 -0.390625 L 0.296875 -0.4375 C 0.296875 -0.476562 0.289062 -0.503906 0.28125 -0.515625 C 0.269531 -0.535156 0.253906 -0.546875 0.234375 -0.546875 C 0.191406 -0.546875 0.171875 -0.519531 0.171875 -0.46875 L 0.171875 -0.4375 L 0.046875 -0.4375 C 0.046875 -0.507812 0.0625 -0.5625 0.09375 -0.59375 C 0.125 -0.625 0.171875 -0.640625 0.234375 -0.640625 C 0.296875 -0.640625 0.335938 -0.625 0.359375 -0.59375 C 0.390625 -0.5625 0.40625 -0.507812 0.40625 -0.4375 L 0.40625 -0.15625 C 0.40625 -0.101562 0.410156 -0.0507812 0.421875 0 L 0.3125 0 C 0.300781 -0.0390625 0.296875 -0.0703125 0.296875 -0.09375 C 0.285156 -0.0625 0.269531 -0.0351562 0.25 -0.015625 C 0.226562 0.00390625 0.203125 0.015625 0.171875 0.015625 Z M 0.21875 -0.09375 C 0.226562 -0.09375 0.238281 -0.0976562 0.25 -0.109375 C 0.269531 -0.117188 0.285156 -0.128906 0.296875 -0.140625 L 0.296875 -0.328125 C 0.265625 -0.304688 0.238281 -0.289062 0.21875 -0.28125 C 0.207031 -0.269531 0.191406 -0.253906 0.171875 -0.234375 C 0.160156 -0.210938 0.15625 -0.191406 0.15625 -0.171875 C 0.15625 -0.148438 0.160156 -0.128906 0.171875 -0.109375 C 0.179688 -0.0976562 0.195312 -0.09375 0.21875 -0.09375 Z M 0.21875 -0.09375 "/></g></g></g><g fill="#1d150e" fill-opacity="1"><g transform="translate(15.506252, 15.611757)"><g><path d="M 0.078125 -0.84375 L 0.1875 -0.84375 L 0.1875 -0.71875 L 0.078125 -0.71875 Z M 0.046875 0.15625 C 0.015625 0.15625 -0.00390625 0.15625 -0.015625 0.15625 L -0.015625 0.0625 C -0.00390625 0.0703125 0.00390625 0.078125 0.015625 0.078125 C 0.0351562 0.078125 0.0507812 0.0664062 0.0625 0.046875 C 0.0703125 0.0351562 0.078125 0.0195312 0.078125 0 L 0.078125 -0.625 L 0.1875 -0.625 L 0.1875 0 C 0.1875 0.0507812 0.171875 0.0859375 0.140625 0.109375 C 0.117188 0.140625 0.0859375 0.15625 0.046875 0.15625 Z M 0.046875 0.15625 "/></g></g></g><g fill="#1d150e" fill-opacity="1"><g transform="translate(15.757693, 15.611757)"><g><path d="M 0.234375 0.015625 C 0.179688 0.015625 0.140625 0.00390625 0.109375 -0.015625 C 0.0859375 -0.0351562 0.0703125 -0.0625 0.0625 -0.09375 C 0.0507812 -0.132812 0.046875 -0.1875 0.046875 -0.25 L 0.046875 -0.390625 C 0.046875 -0.472656 0.0546875 -0.535156 0.078125 -0.578125 C 0.109375 -0.617188 0.160156 -0.640625 0.234375 -0.640625 C 0.285156 -0.640625 0.320312 -0.628906 0.34375 -0.609375 C 0.375 -0.585938 0.390625 -0.554688 0.390625 -0.515625 C 0.398438 -0.484375 0.40625 -0.429688 0.40625 -0.359375 L 0.40625 -0.3125 L 0.171875 -0.3125 L 0.171875 -0.1875 C 0.171875 -0.144531 0.175781 -0.113281 0.1875 -0.09375 C 0.195312 -0.0820312 0.210938 -0.078125 0.234375 -0.078125 C 0.253906 -0.078125 0.269531 -0.0820312 0.28125 -0.09375 C 0.289062 -0.113281 0.296875 -0.144531 0.296875 -0.1875 L 0.296875 -0.21875 L 0.40625 -0.21875 L 0.40625 -0.203125 C 0.40625 -0.128906 0.390625 -0.0703125 0.359375 -0.03125 C 0.335938 0 0.296875 0.015625 0.234375 0.015625 Z M 0.296875 -0.375 L 0.296875 -0.4375 C 0.296875 -0.476562 0.289062 -0.503906 0.28125 -0.515625 C 0.28125 -0.535156 0.265625 -0.546875 0.234375 -0.546875 C 0.210938 -0.546875 0.195312 -0.539062 0.1875 -0.53125 C 0.175781 -0.53125 0.171875 -0.519531 0.171875 -0.5 C 0.171875 -0.476562 0.171875 -0.445312 0.171875 -0.40625 L 0.171875 -0.375 Z M 0.296875 -0.375 "/></g></g></g><g fill="#1d150e" fill-opacity="1"><g transform="translate(16.217941, 15.611757)"><g/></g></g><g fill="#1d150e" fill-opacity="1"><g transform="translate(16.46829, 15.611757)"><g><path d="M 0.203125 0.015625 C 0.148438 0.015625 0.109375 0 0.078125 -0.03125 C 0.046875 -0.0703125 0.03125 -0.117188 0.03125 -0.171875 L 0.125 -0.203125 C 0.132812 -0.160156 0.144531 -0.128906 0.15625 -0.109375 C 0.164062 -0.0859375 0.1875 -0.078125 0.21875 -0.078125 C 0.238281 -0.078125 0.253906 -0.0820312 0.265625 -0.09375 C 0.273438 -0.101562 0.28125 -0.117188 0.28125 -0.140625 C 0.28125 -0.160156 0.273438 -0.175781 0.265625 -0.1875 C 0.253906 -0.207031 0.242188 -0.222656 0.234375 -0.234375 L 0.125 -0.328125 C 0.09375 -0.347656 0.0703125 -0.367188 0.0625 -0.390625 C 0.0507812 -0.421875 0.046875 -0.453125 0.046875 -0.484375 C 0.046875 -0.535156 0.0546875 -0.570312 0.078125 -0.59375 C 0.109375 -0.625 0.148438 -0.640625 0.203125 -0.640625 C 0.253906 -0.640625 0.289062 -0.625 0.3125 -0.59375 C 0.34375 -0.5625 0.359375 -0.519531 0.359375 -0.46875 L 0.28125 -0.4375 C 0.28125 -0.476562 0.273438 -0.503906 0.265625 -0.515625 C 0.253906 -0.535156 0.234375 -0.546875 0.203125 -0.546875 C 0.191406 -0.546875 0.175781 -0.539062 0.15625 -0.53125 C 0.144531 -0.519531 0.140625 -0.503906 0.140625 -0.484375 C 0.140625 -0.460938 0.148438 -0.441406 0.171875 -0.421875 L 0.296875 -0.328125 C 0.316406 -0.296875 0.332031 -0.265625 0.34375 -0.234375 C 0.363281 -0.210938 0.375 -0.1875 0.375 -0.15625 C 0.375 -0.101562 0.359375 -0.0625 0.328125 -0.03125 C 0.296875 0 0.253906 0.015625 0.203125 0.015625 Z M 0.203125 0.015625 "/></g></g></g><g fill="#1d150e" fill-opacity="1"><g transform="translate(16.877156, 15.611757)"><g><path d="M 0.171875 0.015625 C 0.148438 0.015625 0.128906 0.0078125 0.109375 0 C 0.0859375 -0.0195312 0.0703125 -0.0390625 0.0625 -0.0625 C 0.0507812 -0.0820312 0.046875 -0.109375 0.046875 -0.140625 C 0.046875 -0.191406 0.0546875 -0.234375 0.078125 -0.265625 C 0.0976562 -0.296875 0.125 -0.316406 0.15625 -0.328125 C 0.1875 -0.347656 0.234375 -0.367188 0.296875 -0.390625 L 0.296875 -0.4375 C 0.296875 -0.476562 0.289062 -0.503906 0.28125 -0.515625 C 0.269531 -0.535156 0.253906 -0.546875 0.234375 -0.546875 C 0.191406 -0.546875 0.171875 -0.519531 0.171875 -0.46875 L 0.171875 -0.4375 L 0.046875 -0.4375 C 0.046875 -0.507812 0.0625 -0.5625 0.09375 -0.59375 C 0.125 -0.625 0.171875 -0.640625 0.234375 -0.640625 C 0.296875 -0.640625 0.335938 -0.625 0.359375 -0.59375 C 0.390625 -0.5625 0.40625 -0.507812 0.40625 -0.4375 L 0.40625 -0.15625 C 0.40625 -0.101562 0.410156 -0.0507812 0.421875 0 L 0.3125 0 C 0.300781 -0.0390625 0.296875 -0.0703125 0.296875 -0.09375 C 0.285156 -0.0625 0.269531 -0.0351562 0.25 -0.015625 C 0.226562 0.00390625 0.203125 0.015625 0.171875 0.015625 Z M 0.21875 -0.09375 C 0.226562 -0.09375 0.238281 -0.0976562 0.25 -0.109375 C 0.269531 -0.117188 0.285156 -0.128906 0.296875 -0.140625 L 0.296875 -0.328125 C 0.265625 -0.304688 0.238281 -0.289062 0.21875 -0.28125 C 0.207031 -0.269531 0.191406 -0.253906 0.171875 -0.234375 C 0.160156 -0.210938 0.15625 -0.191406 0.15625 -0.171875 C 0.15625 -0.148438 0.160156 -0.128906 0.171875 -0.109375 C 0.179688 -0.0976562 0.195312 -0.09375 0.21875 -0.09375 Z M 0.21875 -0.09375 "/></g></g></g><g fill="#1d150e" fill-opacity="1"><g transform="translate(17.34287, 15.611757)"><g><path d="M 0.28125 0.015625 C 0.25 0.015625 0.210938 -0.00390625 0.171875 -0.046875 L 0.171875 0 L 0.0625 0 L 0.0625 -0.890625 L 0.171875 -0.890625 L 0.171875 -0.578125 C 0.210938 -0.617188 0.253906 -0.640625 0.296875 -0.640625 C 0.359375 -0.640625 0.394531 -0.613281 0.40625 -0.5625 C 0.425781 -0.519531 0.4375 -0.46875 0.4375 -0.40625 L 0.4375 -0.25 C 0.4375 -0.0703125 0.382812 0.015625 0.28125 0.015625 Z M 0.265625 -0.078125 C 0.285156 -0.078125 0.300781 -0.09375 0.3125 -0.125 C 0.320312 -0.15625 0.328125 -0.195312 0.328125 -0.25 L 0.328125 -0.40625 C 0.328125 -0.445312 0.320312 -0.476562 0.3125 -0.5 C 0.300781 -0.53125 0.28125 -0.546875 0.25 -0.546875 C 0.226562 -0.546875 0.203125 -0.535156 0.171875 -0.515625 L 0.171875 -0.109375 C 0.203125 -0.0859375 0.234375 -0.078125 0.265625 -0.078125 Z M 0.265625 -0.078125 "/></g></g></g><g fill="#1d150e" fill-opacity="1"><g transform="translate(17.831542, 15.611757)"><g><path d="M 0.234375 0.015625 C 0.160156 0.015625 0.109375 -0.00390625 0.078125 -0.046875 C 0.0546875 -0.0859375 0.046875 -0.144531 0.046875 -0.21875 L 0.046875 -0.40625 C 0.046875 -0.476562 0.0546875 -0.535156 0.078125 -0.578125 C 0.109375 -0.617188 0.160156 -0.640625 0.234375 -0.640625 C 0.296875 -0.640625 0.34375 -0.617188 0.375 -0.578125 C 0.40625 -0.535156 0.421875 -0.476562 0.421875 -0.40625 L 0.421875 -0.21875 C 0.421875 -0.144531 0.40625 -0.0859375 0.375 -0.046875 C 0.34375 -0.00390625 0.296875 0.015625 0.234375 0.015625 Z M 0.234375 -0.078125 C 0.253906 -0.078125 0.269531 -0.0820312 0.28125 -0.09375 C 0.289062 -0.101562 0.296875 -0.117188 0.296875 -0.140625 C 0.296875 -0.160156 0.296875 -0.1875 0.296875 -0.21875 L 0.296875 -0.421875 C 0.296875 -0.453125 0.296875 -0.472656 0.296875 -0.484375 C 0.296875 -0.503906 0.289062 -0.519531 0.28125 -0.53125 C 0.269531 -0.539062 0.253906 -0.546875 0.234375 -0.546875 C 0.210938 -0.546875 0.195312 -0.539062 0.1875 -0.53125 C 0.175781 -0.519531 0.171875 -0.503906 0.171875 -0.484375 C 0.171875 -0.472656 0.171875 -0.453125 0.171875 -0.421875 L 0.171875 -0.21875 C 0.171875 -0.1875 0.171875 -0.160156 0.171875 -0.140625 C 0.171875 -0.117188 0.175781 -0.101562 0.1875 -0.09375 C 0.195312 -0.0820312 0.210938 -0.078125 0.234375 -0.078125 Z M 0.234375 -0.078125 "/></g></g></g><g fill="#1d150e" fill-opacity="1"><g transform="translate(18.296162, 15.611757)"><g><path d="M 0.0625 -0.625 L 0.171875 -0.625 L 0.171875 -0.546875 C 0.203125 -0.578125 0.226562 -0.597656 0.25 -0.609375 C 0.269531 -0.628906 0.289062 -0.640625 0.3125 -0.640625 C 0.320312 -0.640625 0.332031 -0.640625 0.34375 -0.640625 L 0.34375 -0.515625 C 0.3125 -0.515625 0.289062 -0.515625 0.28125 -0.515625 C 0.257812 -0.515625 0.238281 -0.507812 0.21875 -0.5 C 0.207031 -0.5 0.191406 -0.488281 0.171875 -0.46875 L 0.171875 0 L 0.0625 0 Z M 0.0625 -0.625 "/></g></g></g><g fill="#1d150e" fill-opacity="1"><g transform="translate(18.647087, 15.611757)"><g><path d="M 0.234375 0.015625 C 0.179688 0.015625 0.140625 0.00390625 0.109375 -0.015625 C 0.0859375 -0.0351562 0.0703125 -0.0625 0.0625 -0.09375 C 0.0507812 -0.132812 0.046875 -0.1875 0.046875 -0.25 L 0.046875 -0.390625 C 0.046875 -0.472656 0.0546875 -0.535156 0.078125 -0.578125 C 0.109375 -0.617188 0.160156 -0.640625 0.234375 -0.640625 C 0.285156 -0.640625 0.320312 -0.628906 0.34375 -0.609375 C 0.375 -0.585938 0.390625 -0.554688 0.390625 -0.515625 C 0.398438 -0.484375 0.40625 -0.429688 0.40625 -0.359375 L 0.40625 -0.3125 L 0.171875 -0.3125 L 0.171875 -0.1875 C 0.171875 -0.144531 0.175781 -0.113281 0.1875 -0.09375 C 0.195312 -0.0820312 0.210938 -0.078125 0.234375 -0.078125 C 0.253906 -0.078125 0.269531 -0.0820312 0.28125 -0.09375 C 0.289062 -0.113281 0.296875 -0.144531 0.296875 -0.1875 L 0.296875 -0.21875 L 0.40625 -0.21875 L 0.40625 -0.203125 C 0.40625 -0.128906 0.390625 -0.0703125 0.359375 -0.03125 C 0.335938 0 0.296875 0.015625 0.234375 0.015625 Z M 0.296875 -0.375 L 0.296875 -0.4375 C 0.296875 -0.476562 0.289062 -0.503906 0.28125 -0.515625 C 0.28125 -0.535156 0.265625 -0.546875 0.234375 -0.546875 C 0.210938 -0.546875 0.195312 -0.539062 0.1875 -0.53125 C 0.175781 -0.53125 0.171875 -0.519531 0.171875 -0.5 C 0.171875 -0.476562 0.171875 -0.445312 0.171875 -0.40625 L 0.171875 -0.375 Z M 0.296875 -0.375 "/></g></g></g><g fill="#1d150e" fill-opacity="1"><g transform="translate(19.107335, 15.611757)"><g><path d="M 0.171875 0.015625 C 0.148438 0.015625 0.128906 0.0078125 0.109375 0 C 0.0859375 -0.0195312 0.0703125 -0.0390625 0.0625 -0.0625 C 0.0507812 -0.0820312 0.046875 -0.109375 0.046875 -0.140625 C 0.046875 -0.191406 0.0546875 -0.234375 0.078125 -0.265625 C 0.0976562 -0.296875 0.125 -0.316406 0.15625 -0.328125 C 0.1875 -0.347656 0.234375 -0.367188 0.296875 -0.390625 L 0.296875 -0.4375 C 0.296875 -0.476562 0.289062 -0.503906 0.28125 -0.515625 C 0.269531 -0.535156 0.253906 -0.546875 0.234375 -0.546875 C 0.191406 -0.546875 0.171875 -0.519531 0.171875 -0.46875 L 0.171875 -0.4375 L 0.046875 -0.4375 C 0.046875 -0.507812 0.0625 -0.5625 0.09375 -0.59375 C 0.125 -0.625 0.171875 -0.640625 0.234375 -0.640625 C 0.296875 -0.640625 0.335938 -0.625 0.359375 -0.59375 C 0.390625 -0.5625 0.40625 -0.507812 0.40625 -0.4375 L 0.40625 -0.15625 C 0.40625 -0.101562 0.410156 -0.0507812 0.421875 0 L 0.3125 0 C 0.300781 -0.0390625 0.296875 -0.0703125 0.296875 -0.09375 C 0.285156 -0.0625 0.269531 -0.0351562 0.25 -0.015625 C 0.226562 0.00390625 0.203125 0.015625 0.171875 0.015625 Z M 0.21875 -0.09375 C 0.226562 -0.09375 0.238281 -0.0976562 0.25 -0.109375 C 0.269531 -0.117188 0.285156 -0.128906 0.296875 -0.140625 L 0.296875 -0.328125 C 0.265625 -0.304688 0.238281 -0.289062 0.21875 -0.28125 C 0.207031 -0.269531 0.191406 -0.253906 0.171875 -0.234375 C 0.160156 -0.210938 0.15625 -0.191406 0.15625 -0.171875 C 0.15625 -0.148438 0.160156 -0.128906 0.171875 -0.109375 C 0.179688 -0.0976562 0.195312 -0.09375 0.21875 -0.09375 Z M 0.21875 -0.09375 "/></g></g></g><g fill="#1d150e" fill-opacity="1"><g transform="translate(19.573049, 15.611757)"><g/></g></g><g fill="#1d150e" fill-opacity="1"><g transform="translate(19.823398, 15.611757)"><g><path d="M 0.234375 0.015625 C 0.179688 0.015625 0.140625 0.00390625 0.109375 -0.015625 C 0.0859375 -0.0351562 0.0703125 -0.0625 0.0625 -0.09375 C 0.0507812 -0.132812 0.046875 -0.1875 0.046875 -0.25 L 0.046875 -0.390625 C 0.046875 -0.472656 0.0546875 -0.535156 0.078125 -0.578125 C 0.109375 -0.617188 0.160156 -0.640625 0.234375 -0.640625 C 0.285156 -0.640625 0.320312 -0.628906 0.34375 -0.609375 C 0.375 -0.585938 0.390625 -0.554688 0.390625 -0.515625 C 0.398438 -0.484375 0.40625 -0.429688 0.40625 -0.359375 L 0.40625 -0.3125 L 0.171875 -0.3125 L 0.171875 -0.1875 C 0.171875 -0.144531 0.175781 -0.113281 0.1875 -0.09375 C 0.195312 -0.0820312 0.210938 -0.078125 0.234375 -0.078125 C 0.253906 -0.078125 0.269531 -0.0820312 0.28125 -0.09375 C 0.289062 -0.113281 0.296875 -0.144531 0.296875 -0.1875 L 0.296875 -0.21875 L 0.40625 -0.21875 L 0.40625 -0.203125 C 0.40625 -0.128906 0.390625 -0.0703125 0.359375 -0.03125 C 0.335938 0 0.296875 0.015625 0.234375 0.015625 Z M 0.296875 -0.375 L 0.296875 -0.4375 C 0.296875 -0.476562 0.289062 -0.503906 0.28125 -0.515625 C 0.28125 -0.535156 0.265625 -0.546875 0.234375 -0.546875 C 0.210938 -0.546875 0.195312 -0.539062 0.1875 -0.53125 C 0.175781 -0.53125 0.171875 -0.519531 0.171875 -0.5 C 0.171875 -0.476562 0.171875 -0.445312 0.171875 -0.40625 L 0.171875 -0.375 Z M 0.296875 -0.375 "/></g></g></g><g fill="#1d150e" fill-opacity="1"><g transform="translate(20.283646, 15.611757)"><g><path d="M 0.0625 -0.890625 L 0.1875 -0.890625 L 0.1875 0 L 0.0625 0 Z M 0.0625 -0.890625 "/></g></g></g><g fill="#1d150e" fill-opacity="1"><g transform="translate(20.533995, 15.611757)"><g/></g></g><g fill="#1d150e" fill-opacity="1"><g transform="translate(20.784344, 15.611757)"><g><path d="M 0.203125 0.015625 C 0.148438 0.015625 0.109375 -0.00390625 0.078125 -0.046875 C 0.0546875 -0.0859375 0.046875 -0.15625 0.046875 -0.25 L 0.046875 -0.375 C 0.046875 -0.457031 0.0546875 -0.519531 0.078125 -0.5625 C 0.0976562 -0.613281 0.140625 -0.640625 0.203125 -0.640625 C 0.242188 -0.640625 0.28125 -0.625 0.3125 -0.59375 L 0.3125 -0.890625 L 0.421875 -0.890625 L 0.421875 0 L 0.3125 0 L 0.3125 -0.046875 C 0.28125 -0.00390625 0.242188 0.015625 0.203125 0.015625 Z M 0.234375 -0.078125 C 0.253906 -0.078125 0.28125 -0.0859375 0.3125 -0.109375 L 0.3125 -0.515625 C 0.28125 -0.535156 0.253906 -0.546875 0.234375 -0.546875 C 0.191406 -0.546875 0.171875 -0.503906 0.171875 -0.421875 L 0.171875 -0.234375 C 0.171875 -0.179688 0.171875 -0.140625 0.171875 -0.109375 C 0.179688 -0.0859375 0.203125 -0.078125 0.234375 -0.078125 Z M 0.234375 -0.078125 "/></g></g></g><g fill="#1d150e" fill-opacity="1"><g transform="translate(21.267549, 15.611757)"><g><path d="M 0.234375 0.015625 C 0.179688 0.015625 0.140625 0.00390625 0.109375 -0.015625 C 0.0859375 -0.0351562 0.0703125 -0.0625 0.0625 -0.09375 C 0.0507812 -0.132812 0.046875 -0.1875 0.046875 -0.25 L 0.046875 -0.390625 C 0.046875 -0.472656 0.0546875 -0.535156 0.078125 -0.578125 C 0.109375 -0.617188 0.160156 -0.640625 0.234375 -0.640625 C 0.285156 -0.640625 0.320312 -0.628906 0.34375 -0.609375 C 0.375 -0.585938 0.390625 -0.554688 0.390625 -0.515625 C 0.398438 -0.484375 0.40625 -0.429688 0.40625 -0.359375 L 0.40625 -0.3125 L 0.171875 -0.3125 L 0.171875 -0.1875 C 0.171875 -0.144531 0.175781 -0.113281 0.1875 -0.09375 C 0.195312 -0.0820312 0.210938 -0.078125 0.234375 -0.078125 C 0.253906 -0.078125 0.269531 -0.0820312 0.28125 -0.09375 C 0.289062 -0.113281 0.296875 -0.144531 0.296875 -0.1875 L 0.296875 -0.21875 L 0.40625 -0.21875 L 0.40625 -0.203125 C 0.40625 -0.128906 0.390625 -0.0703125 0.359375 -0.03125 C 0.335938 0 0.296875 0.015625 0.234375 0.015625 Z M 0.296875 -0.375 L 0.296875 -0.4375 C 0.296875 -0.476562 0.289062 -0.503906 0.28125 -0.515625 C 0.28125 -0.535156 0.265625 -0.546875 0.234375 -0.546875 C 0.210938 -0.546875 0.195312 -0.539062 0.1875 -0.53125 C 0.175781 -0.53125 0.171875 -0.519531 0.171875 -0.5 C 0.171875 -0.476562 0.171875 -0.445312 0.171875 -0.40625 L 0.171875 -0.375 Z M 0.296875 -0.375 "/></g></g></g><g fill="#1d150e" fill-opacity="1"><g transform="translate(21.727796, 15.611757)"><g><path d="M 0.203125 0.015625 C 0.148438 0.015625 0.109375 0 0.078125 -0.03125 C 0.046875 -0.0703125 0.03125 -0.117188 0.03125 -0.171875 L 0.125 -0.203125 C 0.132812 -0.160156 0.144531 -0.128906 0.15625 -0.109375 C 0.164062 -0.0859375 0.1875 -0.078125 0.21875 -0.078125 C 0.238281 -0.078125 0.253906 -0.0820312 0.265625 -0.09375 C 0.273438 -0.101562 0.28125 -0.117188 0.28125 -0.140625 C 0.28125 -0.160156 0.273438 -0.175781 0.265625 -0.1875 C 0.253906 -0.207031 0.242188 -0.222656 0.234375 -0.234375 L 0.125 -0.328125 C 0.09375 -0.347656 0.0703125 -0.367188 0.0625 -0.390625 C 0.0507812 -0.421875 0.046875 -0.453125 0.046875 -0.484375 C 0.046875 -0.535156 0.0546875 -0.570312 0.078125 -0.59375 C 0.109375 -0.625 0.148438 -0.640625 0.203125 -0.640625 C 0.253906 -0.640625 0.289062 -0.625 0.3125 -0.59375 C 0.34375 -0.5625 0.359375 -0.519531 0.359375 -0.46875 L 0.28125 -0.4375 C 0.28125 -0.476562 0.273438 -0.503906 0.265625 -0.515625 C 0.253906 -0.535156 0.234375 -0.546875 0.203125 -0.546875 C 0.191406 -0.546875 0.175781 -0.539062 0.15625 -0.53125 C 0.144531 -0.519531 0.140625 -0.503906 0.140625 -0.484375 C 0.140625 -0.460938 0.148438 -0.441406 0.171875 -0.421875 L 0.296875 -0.328125 C 0.316406 -0.296875 0.332031 -0.265625 0.34375 -0.234375 C 0.363281 -0.210938 0.375 -0.1875 0.375 -0.15625 C 0.375 -0.101562 0.359375 -0.0625 0.328125 -0.03125 C 0.296875 0 0.253906 0.015625 0.203125 0.015625 Z M 0.203125 0.015625 "/></g></g></g><g fill="#1d150e" fill-opacity="1"><g transform="translate(22.136663, 15.611757)"><g><path d="M 0.234375 0.015625 C 0.140625 0.015625 0.09375 -0.0351562 0.09375 -0.140625 L 0.09375 -0.546875 L 0.03125 -0.546875 L 0.03125 -0.625 L 0.09375 -0.625 L 0.09375 -0.8125 L 0.203125 -0.8125 L 0.203125 -0.625 L 0.3125 -0.625 L 0.3125 -0.546875 L 0.203125 -0.546875 L 0.203125 -0.15625 C 0.203125 -0.125 0.207031 -0.101562 0.21875 -0.09375 C 0.226562 -0.0820312 0.242188 -0.078125 0.265625 -0.078125 C 0.273438 -0.078125 0.289062 -0.078125 0.3125 -0.078125 L 0.3125 0 C 0.28125 0.0078125 0.253906 0.015625 0.234375 0.015625 Z M 0.234375 0.015625 "/></g></g></g><g fill="#1d150e" fill-opacity="1"><g transform="translate(22.473375, 15.611757)"><g><path d="M 0.0625 -0.84375 L 0.1875 -0.84375 L 0.1875 -0.71875 L 0.0625 -0.71875 Z M 0.0625 -0.625 L 0.1875 -0.625 L 0.1875 0 L 0.0625 0 Z M 0.0625 -0.625 "/></g></g></g><g fill="#1d150e" fill-opacity="1"><g transform="translate(22.723724, 15.611757)"><g><path d="M 0.0625 -0.625 L 0.171875 -0.625 L 0.171875 -0.5625 C 0.222656 -0.613281 0.273438 -0.640625 0.328125 -0.640625 C 0.359375 -0.640625 0.378906 -0.625 0.390625 -0.59375 C 0.410156 -0.570312 0.421875 -0.546875 0.421875 -0.515625 L 0.421875 0 L 0.3125 0 L 0.3125 -0.484375 C 0.3125 -0.503906 0.304688 -0.519531 0.296875 -0.53125 C 0.285156 -0.539062 0.273438 -0.546875 0.265625 -0.546875 C 0.234375 -0.546875 0.203125 -0.535156 0.171875 -0.515625 L 0.171875 0 L 0.0625 0 Z M 0.0625 -0.625 "/></g></g></g><g fill="#1d150e" fill-opacity="1"><g transform="translate(23.20365, 15.611757)"><g><path d="M 0.234375 0.015625 C 0.160156 0.015625 0.109375 -0.00390625 0.078125 -0.046875 C 0.0546875 -0.0859375 0.046875 -0.144531 0.046875 -0.21875 L 0.046875 -0.40625 C 0.046875 -0.476562 0.0546875 -0.535156 0.078125 -0.578125 C 0.109375 -0.617188 0.160156 -0.640625 0.234375 -0.640625 C 0.296875 -0.640625 0.34375 -0.617188 0.375 -0.578125 C 0.40625 -0.535156 0.421875 -0.476562 0.421875 -0.40625 L 0.421875 -0.21875 C 0.421875 -0.144531 0.40625 -0.0859375 0.375 -0.046875 C 0.34375 -0.00390625 0.296875 0.015625 0.234375 0.015625 Z M 0.234375 -0.078125 C 0.253906 -0.078125 0.269531 -0.0820312 0.28125 -0.09375 C 0.289062 -0.101562 0.296875 -0.117188 0.296875 -0.140625 C 0.296875 -0.160156 0.296875 -0.1875 0.296875 -0.21875 L 0.296875 -0.421875 C 0.296875 -0.453125 0.296875 -0.472656 0.296875 -0.484375 C 0.296875 -0.503906 0.289062 -0.519531 0.28125 -0.53125 C 0.269531 -0.539062 0.253906 -0.546875 0.234375 -0.546875 C 0.210938 -0.546875 0.195312 -0.539062 0.1875 -0.53125 C 0.175781 -0.519531 0.171875 -0.503906 0.171875 -0.484375 C 0.171875 -0.472656 0.171875 -0.453125 0.171875 -0.421875 L 0.171875 -0.21875 C 0.171875 -0.1875 0.171875 -0.160156 0.171875 -0.140625 C 0.171875 -0.117188 0.175781 -0.101562 0.1875 -0.09375 C 0.195312 -0.0820312 0.210938 -0.078125 0.234375 -0.078125 Z M 0.234375 -0.078125 "/></g></g></g><g clip-path="url(#3544189e77)"><path fill="#1d150e" d="M 6.378906 7.160156 L 7.066406 7.160156 L 7.066406 7.066406 C 7.03125 7.03125 6.925781 7.03125 6.722656 7.03125 C 6.519531 7.03125 6.414062 7.03125 6.378906 7.066406 L 6.378906 7.160156 " fill-opacity="1" fill-rule="evenodd"/><path fill="#1d150e" d="M 7.125 7.421875 L 7.125 7.292969 L 6.324219 7.292969 L 6.324219 7.421875 L 7.125 7.421875 " fill-opacity="1" fill-rule="evenodd"/><path fill="#1d150e" d="M 7.0625 7.683594 L 6.382812 7.683594 L 6.382812 7.554688 L 7.0625 7.554688 L 7.0625 7.683594 " fill-opacity="1" fill-rule="evenodd"/><path fill="#1d150e" d="M 7.0625 7.945312 L 6.382812 7.945312 L 6.382812 7.816406 L 7.0625 7.816406 L 7.0625 7.945312 " fill-opacity="1" fill-rule="evenodd"/></g><g clip-path="url(#4857990c86)"><path fill="#1d150e" d="M 7.0625 8.078125 L 6.382812 8.078125 L 6.382812 8.207031 L 7.0625 8.207031 L 7.0625 8.078125 " fill-opacity="1" fill-rule="evenodd"/><path fill="#1d150e" d="M 6.382812 8.46875 L 7.0625 8.46875 L 7.0625 8.339844 L 6.382812 8.339844 L 6.382812 8.46875 " fill-opacity="1" fill-rule="evenodd"/><path fill="#1d150e" d="M 6.378906 8.730469 L 7.0625 8.730469 C 7.058594 8.691406 7.0625 8.644531 7.0625 8.601562 L 6.382812 8.601562 C 6.382812 8.644531 6.382812 8.691406 6.378906 8.730469 " fill-opacity="1" fill-rule="evenodd"/><path fill="#1d150e" d="M 6.339844 8.992188 L 7.105469 8.992188 C 7.09375 8.949219 7.085938 8.910156 7.078125 8.863281 L 6.367188 8.863281 C 6.359375 8.910156 6.351562 8.949219 6.339844 8.992188 " fill-opacity="1" fill-rule="evenodd"/></g><g clip-path="url(#907b825365)"><path fill="#1d150e" d="M 7.210938 9.253906 C 7.1875 9.214844 7.164062 9.171875 7.148438 9.125 L 6.300781 9.125 C 6.28125 9.171875 6.257812 9.214844 6.238281 9.253906 L 7.210938 9.253906 " fill-opacity="1" fill-rule="evenodd"/><path fill="#1d150e" d="M 6.007812 9.515625 C 6.058594 9.472656 6.078125 9.460938 6.144531 9.386719 L 7.300781 9.386719 C 7.367188 9.460938 7.386719 9.472656 7.4375 9.515625 L 6.007812 9.515625 " fill-opacity="1" fill-rule="evenodd"/></g><g clip-path="url(#f8b29207cc)"><path fill="#1d150e" d="M 5.769531 9.777344 L 7.675781 9.777344 C 7.648438 9.730469 7.617188 9.6875 7.582031 9.644531 L 5.863281 9.644531 C 5.828125 9.6875 5.796875 9.730469 5.769531 9.777344 " fill-opacity="1" fill-rule="evenodd"/></g><g clip-path="url(#77d6617df7)"><path fill="#1d150e" d="M 5.667969 10.039062 L 7.777344 10.039062 C 7.765625 9.996094 7.753906 9.949219 7.738281 9.90625 L 5.707031 9.90625 C 5.691406 9.949219 5.679688 9.996094 5.667969 10.039062 " fill-opacity="1" fill-rule="evenodd"/></g><g clip-path="url(#7181506a0b)"><path fill="#1d150e" d="M 5.644531 10.300781 L 7.800781 10.300781 L 7.800781 10.246094 C 7.800781 10.21875 7.800781 10.195312 7.796875 10.167969 L 5.648438 10.167969 C 5.648438 10.199219 5.644531 10.214844 5.644531 10.246094 L 5.644531 10.300781 " fill-opacity="1" fill-rule="evenodd"/></g><g clip-path="url(#f6944d17f6)"><path fill="#1d150e" d="M 5.644531 10.429688 L 7.800781 10.429688 L 7.800781 10.5625 L 5.644531 10.5625 L 5.644531 10.429688 " fill-opacity="1" fill-rule="evenodd"/></g><g clip-path="url(#5e2b26dde7)"><path fill="#1d150e" d="M 5.644531 10.824219 L 7.800781 10.824219 L 7.800781 10.691406 L 5.644531 10.691406 L 5.644531 10.824219 " fill-opacity="1" fill-rule="evenodd"/></g><g clip-path="url(#b6bbbd8c9a)"><path fill="#1d150e" d="M 5.644531 11.085938 L 7.800781 11.085938 L 7.800781 10.953125 L 5.644531 10.953125 L 5.644531 11.085938 " fill-opacity="1" fill-rule="evenodd"/></g><g clip-path="url(#db6ebefb87)"><path fill="#1d150e" d="M 5.644531 11.347656 L 7.800781 11.347656 L 7.800781 11.214844 L 5.644531 11.214844 L 5.644531 11.347656 " fill-opacity="1" fill-rule="evenodd"/></g><g clip-path="url(#23d519498c)"><path fill="#1d150e" d="M 5.644531 11.609375 L 7.800781 11.609375 L 7.800781 11.476562 L 5.644531 11.476562 L 5.644531 11.609375 " fill-opacity="1" fill-rule="evenodd"/></g><g clip-path="url(#3e39924d2b)"><path fill="#1d150e" d="M 5.644531 11.871094 L 7.800781 11.871094 L 7.800781 11.738281 L 5.644531 11.738281 L 5.644531 11.871094 " fill-opacity="1" fill-rule="evenodd"/></g><g clip-path="url(#55382bff97)"><path fill="#1d150e" d="M 5.644531 12.132812 L 7.800781 12.132812 L 7.800781 12 L 5.644531 12 L 5.644531 12.132812 " fill-opacity="1" fill-rule="evenodd"/></g><g clip-path="url(#25f547780e)"><path fill="#1d150e" d="M 5.644531 12.394531 L 7.800781 12.394531 L 7.800781 12.261719 L 5.644531 12.261719 L 5.644531 12.394531 " fill-opacity="1" fill-rule="evenodd"/></g><g clip-path="url(#3a0e74f8a8)"><path fill="#1d150e" d="M 6.960938 12.65625 C 6.945312 12.609375 6.929688 12.558594 6.917969 12.523438 L 7.800781 12.523438 L 7.800781 12.65625 L 6.960938 12.65625 " fill-opacity="1" fill-rule="evenodd"/></g><g clip-path="url(#ecd79e19a9)"><path fill="#1d150e" d="M 7.019531 12.917969 C 7.011719 12.867188 7.003906 12.832031 6.992188 12.785156 L 7.800781 12.785156 L 7.800781 12.917969 L 7.019531 12.917969 " fill-opacity="1" fill-rule="evenodd"/></g><g clip-path="url(#25c40c37d2)"><path fill="#1d150e" d="M 7.035156 13.179688 C 7.035156 13.136719 7.035156 13.089844 7.03125 13.046875 L 7.800781 13.046875 L 7.800781 13.179688 L 7.035156 13.179688 " fill-opacity="1" fill-rule="evenodd"/></g><g clip-path="url(#62c1e9861e)"><path fill="#1d150e" d="M 6.992188 13.441406 C 7.007812 13.398438 7.019531 13.351562 7.023438 13.308594 L 7.800781 13.308594 L 7.800781 13.441406 L 6.992188 13.441406 " fill-opacity="1" fill-rule="evenodd"/></g><g clip-path="url(#856c6ad0ad)"><path fill="#1d150e" d="M 6.839844 13.699219 C 6.878906 13.664062 6.914062 13.617188 6.941406 13.570312 L 7.800781 13.570312 L 7.800781 13.699219 L 6.839844 13.699219 " fill-opacity="1" fill-rule="evenodd"/></g><g clip-path="url(#d2e53be5a6)"><path fill="#1d150e" d="M 6.292969 13.960938 C 6.324219 13.910156 6.363281 13.882812 6.414062 13.882812 C 6.5 13.871094 6.550781 13.859375 6.617188 13.832031 L 7.800781 13.832031 L 7.800781 13.960938 L 6.292969 13.960938 " fill-opacity="1" fill-rule="evenodd"/></g><g clip-path="url(#3f20b6974a)"><path fill="#1d150e" d="M 6.222656 14.222656 L 7.800781 14.222656 L 7.800781 14.09375 L 6.246094 14.09375 C 6.234375 14.09375 6.222656 14.222656 6.222656 14.222656 " fill-opacity="1" fill-rule="evenodd"/></g><g clip-path="url(#e0de0f6ee0)"><path fill="#1d150e" d="M 6.054688 13.960938 C 6.027344 13.914062 5.996094 13.882812 5.953125 13.882812 C 5.875 13.871094 5.8125 13.855469 5.75 13.832031 C 5.671875 13.832031 5.644531 13.832031 5.644531 13.832031 L 5.644531 13.960938 L 6.054688 13.960938 " fill-opacity="1" fill-rule="evenodd"/></g><g clip-path="url(#436c5985ef)"><path fill="#1d150e" d="M 6.125 14.222656 L 5.644531 14.222656 L 5.644531 14.09375 L 6.101562 14.09375 C 6.109375 14.09375 6.125 14.222656 6.125 14.222656 " fill-opacity="1" fill-rule="evenodd"/></g><g clip-path="url(#3bc2291477)"><path fill="#1d150e" d="M 6.203125 14.484375 L 7.800781 14.484375 L 7.800781 14.355469 L 6.210938 14.355469 C 6.207031 14.398438 6.203125 14.441406 6.203125 14.484375 " fill-opacity="1" fill-rule="evenodd"/></g><g clip-path="url(#977d5d6468)"><path fill="#1d150e" d="M 6.132812 14.355469 L 5.644531 14.355469 L 5.644531 14.484375 L 6.148438 14.484375 C 6.148438 14.441406 6.144531 14.398438 6.140625 14.355469 " fill-opacity="1" fill-rule="evenodd"/><path fill="#1d150e" d="M 6.160156 14.746094 C 6.160156 14.703125 6.160156 14.660156 6.15625 14.617188 L 5.644531 14.617188 L 5.644531 14.746094 L 6.160156 14.746094 " fill-opacity="1" fill-rule="evenodd"/></g><g clip-path="url(#cae8d14e35)"><path fill="#1d150e" d="M 6.199219 14.746094 L 7.800781 14.746094 L 7.800781 14.617188 L 6.199219 14.617188 C 6.199219 14.660156 6.199219 14.703125 6.199219 14.746094 " fill-opacity="1" fill-rule="evenodd"/></g><g clip-path="url(#e5956e9007)"><path fill="#1d150e" d="M 6.203125 15.007812 L 7.800781 15.007812 L 7.800781 14.878906 L 6.199219 14.878906 C 6.199219 14.917969 6.203125 14.957031 6.203125 15.007812 " fill-opacity="1" fill-rule="evenodd"/></g><g clip-path="url(#c061eca736)"><path fill="#1d150e" d="M 6.164062 15.007812 C 6.164062 14.957031 6.164062 14.917969 6.164062 14.878906 L 5.644531 14.878906 L 5.644531 15.007812 L 6.164062 15.007812 " fill-opacity="1" fill-rule="evenodd"/></g><g clip-path="url(#e65f1dd6f6)"><path fill="#1d150e" d="M 6.203125 15.269531 L 7.800781 15.269531 L 7.800781 15.140625 L 6.203125 15.140625 C 6.203125 15.195312 6.203125 15.234375 6.203125 15.269531 " fill-opacity="1" fill-rule="evenodd"/></g><g clip-path="url(#36e1427ee2)"><path fill="#1d150e" d="M 6.164062 15.269531 C 6.164062 15.234375 6.164062 15.195312 6.164062 15.140625 L 5.644531 15.140625 L 5.644531 15.269531 L 6.164062 15.269531 " fill-opacity="1" fill-rule="evenodd"/></g><g clip-path="url(#c72a45ef3b)"><path fill="#1d150e" d="M 6.308594 15.53125 L 7.800781 15.53125 L 7.800781 15.402344 L 6.214844 15.402344 C 6.226562 15.449219 6.25 15.492188 6.308594 15.53125 " fill-opacity="1" fill-rule="evenodd"/></g><g clip-path="url(#1658741ccc)"><path fill="#1d150e" d="M 6.0625 15.53125 C 6.117188 15.492188 6.144531 15.449219 6.15625 15.402344 L 5.644531 15.402344 L 5.644531 15.53125 L 6.0625 15.53125 " fill-opacity="1" fill-rule="evenodd"/></g><g clip-path="url(#e285ed102d)"><path fill="#1d150e" d="M 5.644531 15.664062 C 5.417969 15.695312 5.605469 15.792969 5.644531 15.792969 L 7.800781 15.792969 L 7.800781 15.664062 L 6.742188 15.664062 C 6.96875 15.695312 6.804688 15.785156 6.765625 15.785156 L 5.644531 15.785156 L 5.644531 15.664062 " fill-opacity="1" fill-rule="evenodd"/></g></svg>